<svg xmlns="http://www.w3.org/2000/svg" width="83" height="83" viewBox="0 0 83 83">
    <defs>
        <clipPath id="gss2x8r17a">
            <path data-name="Rectangle 271" style="fill:none" d="M0 0h83v83H0z"/>
        </clipPath>
    </defs>
    <g data-name="Group 153" transform="translate(0 .001)" style="clip-path:url(#gss2x8r17a)">
        <path data-name="Path 420" d="M41.5 83A41.5 41.5 0 1 1 83 41.5 41.545 41.545 0 0 1 41.5 83m0-78.423A36.923 36.923 0 1 0 78.423 41.5 36.965 36.965 0 0 0 41.5 4.577" style="fill:#313133"/>
        <path data-name="Path 421" d="M66.9 54.021c1.207 2.377 2.286 5.889.581 9.123-2.273 4.3-8.718 7.187-19.161 8.569a24.187 24.187 0 0 1-8.577-2.695 17.493 17.493 0 0 1-5.682-4.8 15.528 15.528 0 0 1-1.68-2.809 6.139 6.139 0 0 0 .99-1.453.906.906 0 1 0-1.626-.8 3.357 3.357 0 0 1-2.759 2.054h-.016a3.108 3.108 0 0 1-2.446-1.183 5.715 5.715 0 0 1-.28-6.718 3.1 3.1 0 0 1 2.356-1.382 6.724 6.724 0 0 1 2.459 1.241c.356.271.707.567 1.041.873.081.075.157.147.226.209a17.3 17.3 0 0 1 1.455 1.544.951.951 0 0 0 1.674-.742c-1.6-10.841 1.384-15.71 3.148-17.572l1.176 9.652a.948.948 0 0 0 1 .832l22.955-1.5a46.939 46.939 0 0 0 3.16 7.562" transform="translate(-2.407 -3.568)" style="fill:#fff"/>
        <path data-name="Path 422" d="M66.492 57.25a4.231 4.231 0 0 1-.292-2.75.609.609 0 1 0-1.193-.245 5.981 5.981 0 0 0 .213 3.232 3.135 3.135 0 0 0-1.746 1.717.609.609 0 1 0 1.131.452 1.981 1.981 0 0 1 1.777-1.2h.014a1.83 1.83 0 1 1 .14 3.646 2.293 2.293 0 0 1-.786-.112.608.608 0 1 0-.4 1.147 3.374 3.374 0 0 0 1.22.185h.02a3.037 3.037 0 1 0-.093-6.07" transform="translate(-6.039 -5.119)" style="fill:#313133"/>
        <path data-name="Path 423" d="M59.218 58.088a13.572 13.572 0 0 1-8.394.486.609.609 0 0 0-.326 1.173 14.519 14.519 0 0 0 9.222-.55.608.608 0 0 0-.5-1.108" transform="translate(-4.765 -5.524)" style="fill:#313133"/>
        <path data-name="Path 424" d="M74.047 56.208a.607.607 0 0 0-.85-.133 4.292 4.292 0 0 1-3.137.806.608.608 0 1 0-.243 1.192 4.5 4.5 0 0 0 .981.061 5.61 5.61 0 0 0 3.116-1.076.612.612 0 0 0 .133-.85" transform="translate(-6.6 -5.326)" style="fill:#313133"/>
        <path data-name="Path 425" d="M30.287 58.347c-1.3-.585-1.278-1.405-1.262-1.548a3.143 3.143 0 0 1 .541-.363.608.608 0 0 0-.521-1.1 4.071 4.071 0 0 0-1.969 2.164 3.538 3.538 0 0 0 .342 2.838.609.609 0 0 0 1.078-.566 2.5 2.5 0 0 1-.318-1.637 3.471 3.471 0 0 0 1.611 1.324.609.609 0 0 0 .5-1.11" transform="translate(-2.562 -5.262)" style="fill:#313133"/>
        <path data-name="Path 426" d="M56.75 68.71a.608.608 0 0 0-.851-.126c-.153.112-3.769 2.731-7-.246-1.179-1.086-2.508-1.334-3.551-.661a2.666 2.666 0 0 0-1.029 3.052c.245.744 1.183 2.427 4.663 2.3.1 0 .2-.006.3-.013A.609.609 0 0 0 49.2 71.8a5.1 5.1 0 0 1-2.952-.523 2.276 2.276 0 0 1-.055-.395 2.122 2.122 0 0 1 1.353-2.049 3.635 3.635 0 0 1 .526.4c3.964 3.647 8.5.36 8.548.328a.608.608 0 0 0 .127-.851" transform="translate(-4.206 -6.407)" style="fill:#313133"/>
        <path data-name="Path 427" d="M72.641 39.957a29.048 29.048 0 0 0-30.086-27.783l-.178.007a29.018 29.018 0 0 0-24.986 41.634c.409.833 1.282 3.323.4 4.773-.5.826-1.569 1.272-3.182 1.329h-.084a.95.95 0 0 0-.8 1.408l.166.3a1.012 1.012 0 0 0 .112.162c.059.068 4.4 4.959 10.583 4.739a13.04 13.04 0 0 0 7.113-2.572 20.392 20.392 0 0 0 6.3 4.944 26.288 26.288 0 0 0 9.151 2.733h.113c.031 0 .063 0 .109-.006 11.312-1.479 18.388-4.779 21.041-9.8 1.718-3.257 1.525-7.152-.561-11.263a46.629 46.629 0 0 1-2.85-6.665l6.391-.42a.932.932 0 0 0 .527-.205.947.947 0 0 0 .71-.879c.034-.8.032-1.619 0-2.43m-6.842 11.648c1.207 2.377 2.286 5.889.581 9.123-2.273 4.3-8.718 7.187-19.161 8.569a24.187 24.187 0 0 1-8.577-2.695 17.493 17.493 0 0 1-5.682-4.8A15.528 15.528 0 0 1 31.268 59a6.139 6.139 0 0 0 .99-1.453.906.906 0 1 0-1.626-.8 3.357 3.357 0 0 1-2.759 2.053h-.014a3.108 3.108 0 0 1-2.446-1.183 5.715 5.715 0 0 1-.28-6.718 3.1 3.1 0 0 1 2.354-1.383 6.725 6.725 0 0 1 2.459 1.241c.356.271.707.567 1.041.873.081.075.157.147.226.209a17.3 17.3 0 0 1 1.455 1.544.951.951 0 0 0 1.674-.742c-1.6-10.841 1.384-15.71 3.148-17.572l1.176 9.652a.948.948 0 0 0 1 .832l22.955-1.5a46.939 46.939 0 0 0 3.16 7.562" transform="translate(-1.296 -1.157)" style="fill:#313133"/>
    </g>
</svg>
