<svg xmlns="http://www.w3.org/2000/svg" width="343.258" height="280.676" viewBox="0 0 343.258 280.676">
    <defs>
        <clipPath id="fitbrvw65a">
            <path data-name="Rectangle 12542" style="fill:#fff" d="M0 0h59.468v39.048H0z"/>
        </clipPath>
        <clipPath id="vyanodno6b">
            <path data-name="Rectangle 12543" style="fill:#fff" d="M0 0h60.525v29.142H0z"/>
        </clipPath>
    </defs>
    <g transform="translate(-185.277 -534.479)">
        <g data-name="Group 18469">
            <g data-name="Group 18458">
                <path data-name="Rectangle 12534" transform="translate(388.299 746.154)" style="fill:#988831" d="M0 0h42.197v38.272H0z"/>
                <path data-name="Rectangle 12535" transform="translate(429.514 746.154)" style="fill:#f5d006" d="M0 0h68.693v38.272H0z"/>
                <path data-name="Path 16081" d="M447.83 811.423a2.215 2.215 0 0 1-1.933-1.136l-4.091-7.345a2.213 2.213 0 0 1 3.866-2.153l2.73 4.9 9.555-8.725a2.213 2.213 0 0 1 2.984 3.268l-11.62 10.61a2.214 2.214 0 0 1-1.492.579" transform="translate(-42.698 -36.912)" style="fill:#fff"/>
                <g data-name="Group 18471" style="isolation:isolate">
                    <path data-name="Path 16082" d="M190.519 850.681h-44.382a5.325 5.325 0 0 1-5.325-5.326v-.244a5.325 5.325 0 0 1 5.325-5.325h44.382a5.325 5.325 0 0 1 5.325 5.325v.244a5.325 5.325 0 0 1-5.325 5.326" transform="translate(162.563 -83.687)" style="fill:#fff"/>
                    <path data-name="Rectangle 12536" transform="translate(304.772 703.692)" style="fill:#fff" d="M0 0h116.212v8.101H0z"/>
                    <path data-name="Rectangle 12537" transform="translate(304.772 716.543)" style="fill:#fff" d="M0 0h97.216v8.101H0z"/>
                    <path data-name="Rectangle 12538" transform="translate(304.772 730.51)" style="fill:#fff" d="M0 0h67.325v8.101H0z"/>
                </g>
                <path data-name="Path 16095" d="M264.549 328.464H5.308A5.308 5.308 0 0 0 0 333.772v193.593a5.308 5.308 0 0 0 5.308 5.308h259.241a5.308 5.308 0 0 0 5.308-5.308V333.772a5.308 5.308 0 0 0-5.308-5.308m-5.308 29.371H10.616v-18.756h248.625zM10.616 368.45h248.625v153.607H10.616z" transform="translate(258.678 282.482)" style="fill:#fff"/>
            </g>
            <g data-name="Group 18457">
                <path data-name="Path 16083" d="M294.562 332.541h-63.425a12.111 12.111 0 0 1-11.852-9.667L206.5 278.933a15.838 15.838 0 0 1 8.776-19.124 16.2 16.2 0 0 1 19.81 6 16.182 16.182 0 0 1 27.012 0 16.182 16.182 0 0 1 27.012 0 16.186 16.186 0 0 1 24.211-3.225 15.876 15.876 0 0 1 4.621 15.825l-11.5 44.249a12.073 12.073 0 0 1-11.885 9.887" transform="translate(182.667 345.033)" style="fill:#333"/>
                <path data-name="Path 16084" d="M231.59 198.836a15.994 15.994 0 0 1 12.893-25.459h74.64a16 16 0 0 1 12.3 26.225" transform="translate(166.049 407.434)" style="fill:#333"/>
                <path data-name="Path 16085" d="M267.526 102.349h72.081a9.489 9.489 0 0 1 9.489 9.489 9.489 9.489 0 0 1-9.489 9.489h-72.081a9.489 9.489 0 0 1-9.49-9.489 9.489 9.489 0 0 1 9.49-9.489" transform="translate(144.397 459.481)" style="fill:#f5d006"/>
                <path data-name="Path 16086" d="M310.617 23.346h49.05a9.489 9.489 0 0 1 9.49 9.489 9.489 9.489 0 0 1-9.49 9.489h-49.05a9.489 9.489 0 0 1-9.489-9.489 9.489 9.489 0 0 1 9.489-9.489" transform="translate(112.821 517.372)" style="fill:#333"/>
                <path data-name="Path 16087" d="M286.768 328.637h-67.455a12.881 12.881 0 0 1-12.6-10.281l-13.593-46.733a16.844 16.844 0 0 1 9.335-20.338 17.226 17.226 0 0 1 21.068 6.376 17.209 17.209 0 0 1 28.728 0 17.21 17.21 0 0 1 28.728 0 17.214 17.214 0 0 1 25.749-3.431 16.884 16.884 0 0 1 4.915 16.83l-12.229 47.062a12.84 12.84 0 0 1-12.646 10.514m-77.61-72.993a11.432 11.432 0 0 0-4.478.9 11.132 11.132 0 0 0-6.078 13.481l13.628 46.85c.024.084.045.169.062.255a7.157 7.157 0 0 0 7.018 5.79h67.455a7.136 7.136 0 0 0 7.039-5.909c.013-.076.03-.151.049-.224l12.257-47.165a11.128 11.128 0 0 0-3.163-11.109 11.507 11.507 0 0 0-19.114 8.635 2.856 2.856 0 0 1-5.713 0 11.507 11.507 0 0 0-23.015 0 2.856 2.856 0 1 1-5.713 0 11.508 11.508 0 0 0-23.015 0 2.856 2.856 0 1 1-5.713 0 11.521 11.521 0 0 0-11.506-11.505z" transform="translate(192.505 351.338)" style="fill:#fff"/>
                <path data-name="Path 16088" d="M283.99 326.862h-67.455a13.892 13.892 0 0 1-13.584-11.049l-13.582-46.7a17.858 17.858 0 0 1 9.913-21.554 18.235 18.235 0 0 1 21.462 5.578 18.217 18.217 0 0 1 28.728 0 18.217 18.217 0 0 1 28.728 0 18.218 18.218 0 0 1 26.419-2.455 17.906 17.906 0 0 1 5.225 17.846l-12.22 47.027a13.855 13.855 0 0 1-13.634 11.3m-77.61-78.708a16.11 16.11 0 0 0-6.309 1.275 15.832 15.832 0 0 0-8.756 19.122l13.605 46.772.008.04a11.87 11.87 0 0 0 11.608 9.472h67.454a11.826 11.826 0 0 0 11.648-9.685l.006-.036.009-.034 12.229-47.062a15.864 15.864 0 0 0-4.6-15.817 16.2 16.2 0 0 0-24.235 3.227l-.847 1.279-.844-1.274a16.2 16.2 0 0 0-27.04 0l-.844 1.274-.844-1.274a16.2 16.2 0 0 0-27.039 0l-.844 1.274-.844-1.274a16.191 16.191 0 0 0-13.522-7.274zm77.61 72.993h-67.455a8.172 8.172 0 0 1-8.012-6.611 1.835 1.835 0 0 0-.041-.167l-13.627-46.848a12.144 12.144 0 0 1 6.652-14.7 12.527 12.527 0 0 1 17.393 11.548 1.844 1.844 0 1 0 3.687 0 12.52 12.52 0 1 1 25.041 0 1.844 1.844 0 1 0 3.687 0 12.52 12.52 0 1 1 25.041 0 1.844 1.844 0 1 0 3.687 0 12.52 12.52 0 0 1 20.8-9.394 12.149 12.149 0 0 1 3.474 12.123l-12.257 47.165q-.018.07-.031.144a8.147 8.147 0 0 1-8.034 6.751zm-77.61-67.279a10.424 10.424 0 0 0-4.083.823 10.12 10.12 0 0 0-5.5 12.265l13.628 46.85c.034.118.061.23.083.344a6.144 6.144 0 0 0 6.023 4.972h67.455a6.125 6.125 0 0 0 6.041-5.072q.027-.152.067-.3l12.257-47.162a10.108 10.108 0 0 0-2.852-10.094 10.494 10.494 0 0 0-17.431 7.875 3.87 3.87 0 0 1-7.739 0 10.494 10.494 0 1 0-20.989 0 3.869 3.869 0 1 1-7.739 0 10.494 10.494 0 1 0-20.989 0 3.869 3.869 0 1 1-7.739 0 10.506 10.506 0 0 0-10.5-10.492z" transform="translate(195.284 354.126)" style="fill:#fff"/>
                <path data-name="Path 16089" d="M346.459 365.116a4.208 4.208 0 1 1-4.208 4.208 4.208 4.208 0 0 1 4.208-4.208" transform="translate(82.688 266.935)" style="fill:#fff"/>
                <path data-name="Path 16090" d="M469.778 365.116a4.208 4.208 0 1 1-4.208 4.208 4.208 4.208 0 0 1 4.208-4.208" transform="translate(-7.676 266.935)" style="fill:#fff"/>
                <path data-name="Path 16091" d="M381.021 428.573c-6.917 0-12.763-3.647-14.221-8.878a2.346 2.346 0 0 1 4.519-1.259c.865 3.1 5.035 5.445 9.7 5.445 4.7 0 8.873-2.358 9.712-5.486a2.346 2.346 0 1 1 4.531 1.217c-1.415 5.278-7.272 8.962-14.243 8.962" transform="translate(64.762 229.167)" style="fill:#fff"/>
                <path data-name="Path 16092" d="M312.77 184.352a4.052 4.052 0 0 1-3.112-6.644 11.943 11.943 0 0 0-9.184-19.578h-74.64a11.944 11.944 0 0 0-9.629 19.007 4.052 4.052 0 0 1-6.529 4.8 20.047 20.047 0 0 1 16.158-31.911h74.64a20.046 20.046 0 0 1 15.41 32.867 4.043 4.043 0 0 1-3.115 1.459" transform="translate(182.683 424.545)" style="fill:#fff"/>
                <path data-name="Path 16093" d="M320.937 106.086h-72.08a13.542 13.542 0 1 1 0-27.084h72.08a13.542 13.542 0 0 1 0 27.084m-72.081-18.98a5.438 5.438 0 1 0 0 10.875h72.08a5.438 5.438 0 0 0 0-10.875z" transform="translate(161.048 476.589)" style="fill:#fff"/>
                <path data-name="Path 16094" d="M341 27.083h-49.049a13.542 13.542 0 0 1 0-27.084H341a13.542 13.542 0 0 1 0 27.084M291.951 8.1a5.438 5.438 0 1 0 0 10.875H341A5.438 5.438 0 1 0 341 8.1z" transform="translate(129.469 534.48)" style="fill:#fff"/>
            </g>
            <g data-name="Group 18466" style="isolation:isolate">
                <g data-name="Group 18465" style="clip-path:url(#fitbrvw65a)" transform="translate(185.277 702.156)">
                    <path data-name="Path 16096" d="M17.22 78.623c-.444-1.574-1.3-5.155-2.06-8.315l-.264-1.1c-.706-3.222-1.446-6.286-1.526-6.49a1.7 1.7 0 0 0-.737-.8l-.072-.023a.8.8 0 0 0-.516.034 1.193 1.193 0 0 0-.669.948c-.04.187-.086.4 1.944 9.04l.012.082c.01.067.021.133.022.164a1.531 1.531 0 0 0 .055.392c.039.174.1.424.171.73.134.566.318 1.342.5 2.185.249.966.46 1.855.6 2.476a91.997 91.997 0 0 1-2.733-2.726c-.857-.958-1.347-1.381-1.815-1.194s-.522.782-.485 1.985c.056.889-.018 2.861-.1 3.922-.325-.552-.751-1.286-1.079-1.851-.519-.945-1.053-1.854-1.405-2.456-.2-.345-.362-.617-.411-.712l-.029-.048c-.1-.145-.323-.522-.578-.958s-.559-.959-.869-1.461c-3.056-5.32-3.411-5.909-3.944-6.037L1.2 66.4a1.121 1.121 0 0 0-1.117.541c-.237.546-.172.732 3.334 6.8 1.834 3.162 3.776 6.6 4.422 7.828l.219.412c1.856 3.491 1.929 3.628 2.19 3.777l.038.019a.849.849 0 0 0 .427.043 1.2 1.2 0 0 0 .287-.071c.651-.257.727-.867.792-3.605 0-1.619.043-3.034.09-3.824.485.473 1.316 1.312 2.483 2.508 1.99 2.125 2.527 2.593 3.231 2.315a.8.8 0 0 0 .515-1.077c-.049-.271-.439-1.835-.889-3.442" transform="translate(0 -46.781)" style="fill:#fff"/>
                    <path data-name="Path 16097" d="M90.811 60.444c-.384.022-.662.352-1.3 1.22a13.436 13.436 0 0 1-1.078 1.351l-.03.028a4.207 4.207 0 0 1-1.515 1.04l-.039.007A3.942 3.942 0 0 1 83.645 63a13.13 13.13 0 0 1-1.987-2.92 23.6 23.6 0 0 1-1.823-6.355 6.475 6.475 0 0 1 1.3-4.99c.646-.8.883-.88 2.419-.076.939.48 1.329.647 1.706.5a.886.886 0 0 0 .578-.637c.1-.467-.193-1.047-.867-1.727a3.557 3.557 0 0 0-3.889-.876 3.881 3.881 0 0 0-.756.407 5.419 5.419 0 0 0-1.819 2.169 9.5 9.5 0 0 0-.952 6.628 18.237 18.237 0 0 0 1.372 4.932c1.536 3.46 2.734 5.007 4.746 6.129a4.7 4.7 0 0 0 2.582.743l.037-.005a11.026 11.026 0 0 0 3.025-1.367 6.512 6.512 0 0 0 1.741-2.242c.56-1.1.709-2.053.4-2.539a.711.711 0 0 0-.644-.331" transform="translate(-58.499 -34.531)" style="fill:#fff"/>
                    <path data-name="Path 16098" d="M149.452 38.2a1.161 1.161 0 0 0-.922-1.079l-.049-.009c-.222-.027-.529-.281-1.372-1.459a79.28 79.28 0 0 0-2.251-2.9 25.193 25.193 0 0 1-1.811-2.515c-.394-.692-.722-1.184-1.351-1.216l-.084-.008-.078.031a.742.742 0 0 0-.183.043 1.022 1.022 0 0 0-.688.832c0 .219.07 1.088.093 1.363.052.609.13 2.186.207 3.8l.2 4.981c.056 1.418.11 3.528.077 4.807-.084 3.348.037 4.222.458 5.287.262.78.484 1 .654 1.089a.762.762 0 0 0 .509.136.627.627 0 0 0 .2-.06c.387-.19.561-.721.644-1.963.012-.213.006-.61 0-1.114-.008-.594-.019-1.334 0-2.028.02-.913.01-2.171-.031-3.639a5.134 5.134 0 0 1 .063-1.423.177.177 0 0 1 .06-.024 45.866 45.866 0 0 0 2.1-.492 33.635 33.635 0 0 1 1.641-.4c.47.585 2.159 2.832 3.529 4.685 1.2 1.616 1.611 2.04 2.111 2.16a.613.613 0 0 0 .824-.331 1.842 1.842 0 0 0 .238-.823c.03-.728-.495-1.594-2.809-4.632a11.212 11.212 0 0 1-1.979-3.092m-6.28-3.853v-.079c.656.9 2.2 2.907 2.828 3.7-.144.06-.329.133-.528.212a7.248 7.248 0 0 1-1.749.539c-.215.016-.23-.022-.26-.1a23.122 23.122 0 0 1-.294-4.276" transform="translate(-106.358 -21.939)" style="fill:#fff"/>
                    <path data-name="Path 16099" d="M198 13.185a9.875 9.875 0 0 0-1.395-3.673 2.144 2.144 0 0 0-3.2-.7 22.964 22.964 0 0 1-2.433.991c-1.869.667-2.021.722-2.195 1.121a1.13 1.13 0 0 0 .261 1.218c.491.5 1.383.361 4.149-.623l1.387-.493.07.125.03.047a13.869 13.869 0 0 1 .751 1.688 9.479 9.479 0 0 1 .68 2.369c.291 1.918.246 2.5-.241 3.089-.73.885-2.845 1.061-4.355.362-1.285-.579-3.024-3.4-4.134-6.713-.994-3-1.126-4.55-.546-6.373.558-1.765 2.173-3.375 3.062-3.409a4.045 4.045 0 0 1 .96.269 2.157 2.157 0 0 0 1.952.064.97.97 0 0 0 .4-.859c-.019-.672-.654-1-1.3-1.284a4.409 4.409 0 0 0-2.987-.236 1.815 1.815 0 0 0-.384.115 7.627 7.627 0 0 0-4.063 4.573 5.775 5.775 0 0 0-.4 2.379v.478a11 11 0 0 0 .052 1.636 39.315 39.315 0 0 0 3.018 8.408 7.7 7.7 0 0 0 3.355 3.28 5.262 5.262 0 0 0 3.414.623c.219-.027.448-.063.69-.109a6.823 6.823 0 0 0 2.634-1.188 4.892 4.892 0 0 0 1.41-3.384 15.286 15.286 0 0 0-.642-3.791" transform="translate(-139.171)" style="fill:#fff"/>
                </g>
            </g>
            <g data-name="Group 18468" style="isolation:isolate">
                <g data-name="Group 18467" style="clip-path:url(#vyanodno6b)" transform="translate(290 661.56)">
                    <path data-name="Path 16100" d="M4.557 20.723q-.276-.5-.557-.989c-.457-.806-.93-1.639-1.358-2.486-.064-.155-.137-.307-.21-.46a4.225 4.225 0 0 1-.359-.928l.053-.042a19.183 19.183 0 0 1 2.959-1.838 5.428 5.428 0 0 1 .661-.307 4.559 4.559 0 0 0 .917-.462.833.833 0 0 0 .327-1.051.971.971 0 0 0-.511-.547l-.111-.065-.059-.01a1.243 1.243 0 0 0-.824.1l-1.516.694a20.95 20.95 0 0 0-3.451 2c-.506.325-.543.682-.51.887a5.376 5.376 0 0 0 .483 1.9 34.671 34.671 0 0 0 2.173 4.03l.12.192a2.421 2.421 0 0 0 .914 1 .716.716 0 0 0 .118.047.839.839 0 0 0 .929-.471l.019-.041a1.269 1.269 0 0 0-.152-1.039z" transform="translate(0 -8.85)" style="fill:#fff"/>
                    <path data-name="Path 16101" d="m43.921 9.324-.073-.116.336-1.366c.2-.814.375-1.519.524-2.12.424-1.707.617-2.485.636-2.778.009-.747-.369-.941-.533-.99a.653.653 0 0 0-.2-.022H44.46c-.647.083-.662.133-1.431 2.786l-1.112 3.81-.53-.124a60.62 60.62 0 0 1-2.628-.734L37.18 7.2l.046-.19c.06-.285.25-1.01.452-1.686.194-.647.533-1.87.748-2.68.407-1.534.473-2.136.036-2.462a.874.874 0 0 0-1.162.09c-.556.63-1.51 3.871-2.211 6.478-.132.485-.335 1.279-.551 2.119s-.458 1.787-.669 2.581l-.1.379c-1.022 3.864-1.179 4.458-1.074 4.8l.013.042.024.037a1.026 1.026 0 0 0 .867.443.335.335 0 0 0 .164-.012 1.045 1.045 0 0 0 .658-.324l.042-.055a11.045 11.045 0 0 0 .563-1.849l.591-2.173c.5-1.845.885-3.258 1.051-3.772.875.225 3.99 1.173 4.829 1.469-.117.505-.484 1.854-1 3.577-1.19 3.974-1.231 4.419-.9 4.87a.921.921 0 0 0 .491.333 1.074 1.074 0 0 0 .146.033.343.343 0 0 0 .2-.014 1.035 1.035 0 0 0 .729-.376c.171-.221.473-.834 1.128-3.605.081-.34.174-.76.271-1.2.153-.692.311-1.408.442-1.9l.38-1.348.066-.015a.816.816 0 0 0 .6-.48 1.081 1.081 0 0 0-.126-.993" transform="translate(-25.111 -.001)" style="fill:#fff"/>
                    <path data-name="Path 16102" d="m106.662 17.892-1.524-.456c-5.491-1.644-6.42-1.858-6.71-1.065a.735.735 0 0 0-.027.607c.185.433.82.71 2.267 1.205l1.466.507-.694 2.559a127.563 127.563 0 0 0-1.142 4.351 192.93 192.93 0 0 1-1.773 6.076c-.322 1.053-.394 1.294-.408 1.4a.633.633 0 0 0 .212.563 1.3 1.3 0 0 0 .474.256.9.9 0 0 0 .742-.058l.023-.016c.255-.2.255-.2 1.212-3.394.517-1.728 1.481-4.945 2.109-7.224.581-2.085.978-3.377 1.145-3.85a47.34 47.34 0 0 1 1.8.463c2.141.539 2.787.7 3.07-.244l.025-.08a.765.765 0 0 0 .01-.627c-.174-.326-.581-.459-2.278-.967" transform="translate(-75.425 -12.243)" style="fill:#fff"/>
                    <path data-name="Path 16103" d="M145.093 32.5a1.117 1.117 0 0 0-.486-1 .9.9 0 0 0-.909-.063 7.5 7.5 0 0 0-1.245 1.251c-1.421 1.618-2.774 3.061-3.379 3.644-.169-.783-.493-2.625-.838-4.987a13.166 13.166 0 0 0-.307-1.6l-.037-.071a1.066 1.066 0 0 0-.544-.4.963.963 0 0 0-.969.27c-.4.407-1.018 2.074-3.613 10.341-1.835 6.032-1.835 6.032-1.626 6.358l.023.031a.915.915 0 0 0 1.123.055c.524-.357.556-.457 2.219-5.741l.058-.186c1.221-3.93 1.831-5.776 2.134-6.639l.044.286c.04.262.081.533.126.755a37.868 37.868 0 0 0 .711 3.911l.009.022a.846.846 0 0 0 .543.544.838.838 0 0 0 .811-.147 27.6 27.6 0 0 0 2.83-2.866c.216-.242.484-.539.713-.781-.221.887-.727 2.767-1.875 6.751-1.541 5.237-1.611 5.55-1.35 6.173a.847.847 0 0 0 .536.556.719.719 0 0 0 .1.022.727.727 0 0 0 .7-.33l.018-.028c.157-.281 2.835-9.479 3.538-12.149.483-1.792.9-3.539.945-3.991" transform="translate(-100.748 -22.485)" style="fill:#fff"/>
                    <path data-name="Path 16104" d="M194.231 61.6c-.277-.28-.5-.35-2.233-.9l-1.733-.543.177-.72c.075-.371.391-1.505.756-2.819.169-.61.352-1.266.529-1.916 2.428-8.69 2.546-9.555 2.066-10.1l-.089-.075a.74.74 0 0 0-.241-.129l-.072-.022-.1.017a1.254 1.254 0 0 0-.257.058 1.007 1.007 0 0 0-.885 1.012v.034c-.011.619-.537 2.648-2.012 7.752-1.707 6.075-2.081 7.615-2.142 8.06-.075.249.141.382.256.454.04.025.086.053.132.085l.025.016a9.409 9.409 0 0 0 1.334.467 23.051 23.051 0 0 0 4 .924h.023a.945.945 0 0 0 .743-.656 1 1 0 0 0-.271-.995" transform="translate(-144.51 -34.117)" style="fill:#fff"/>
                    <path data-name="Path 16105" d="M235.58 82.8a24.267 24.267 0 0 0-1.782-3.575l-.9-1.407a1.155 1.155 0 0 0-.648-.555l-.058-.025H232.048a.972.972 0 0 0-.713.183.893.893 0 0 0-.3 1.044 5 5 0 0 0 .521.88 5.386 5.386 0 0 1 .407.652 20.9 20.9 0 0 1 1.451 3.132v.023c0 .013.006.03.009.046a3.641 3.641 0 0 1-.889.641c-.12.07-.24.14-.347.207-.924.531-1.871 1.022-2.786 1.5l-.713.371-.053.028a1.278 1.278 0 0 0-.778.814l-.006.045a.839.839 0 0 0 .514.9.686.686 0 0 0 .121.024 2.43 2.43 0 0 0 1.4-.362l.124-.062a34.7 34.7 0 0 0 4.037-2.177 5.011 5.011 0 0 0 1.472-1.32.949.949 0 0 0 .057-1.006" transform="translate(-175.169 -59.372)" style="fill:#fff"/>
                </g>
            </g>
            <path data-name="Path 16106" d="M4.237 0v3.931H0v2.6h4.237v3.931h2.6V6.534h4.247v-2.6H6.841V0z" transform="translate(366.797 588.596)" style="fill:#f5d006"/>
            <path data-name="Path 16107" d="M4.237 0v3.931H0v2.6h4.237v3.931h2.6V6.534h4.247v-2.6H6.841V0z" transform="translate(222.345 670.899)" style="fill:#fff"/>
            <path data-name="Path 16108" d="M4.237 0v3.931H0v2.6h4.237v3.931h2.6V6.534h4.247v-2.6H6.841V0z" transform="translate(233.433 777.775)" style="fill:#f5d006"/>
        </g>
        <circle data-name="Ellipse 1220" cx="2" cy="2" r="2" transform="translate(287 630.155)" style="fill:#4a4a4a"/>
        <ellipse data-name="Ellipse 1221" cx="2.5" cy="2" rx="2.5" ry="2" transform="translate(295 630.155)" style="fill:#4a4a4a"/>
        <ellipse data-name="Ellipse 1222" cx="2.5" cy="2" rx="2.5" ry="2" transform="translate(304 630.155)" style="fill:#4a4a4a"/>
    </g>
</svg>
