<svg xmlns="http://www.w3.org/2000/svg" width="395.699" height="271.149" viewBox="0 0 395.699 271.149">
    <g data-name="Group 20412" transform="translate(0 -17.883)">
        <path data-name="Path 844" d="M270.809 169.617a84.809 84.809 0 1 1 84.809-84.809 84.882 84.882 0 0 1-84.809 84.809zm0-164.146a79.337 79.337 0 1 0 79.337 79.337 79.394 79.394 0 0 0-79.337-79.336z" transform="translate(28 19.383)" style="fill:#fff"/>
        <path data-name="Path 844 - Outline" d="M270.809 171.117a86.694 86.694 0 0 1-17.377-1.756 85.86 85.86 0 0 1-30.856-13 86.7 86.7 0 0 1-31.285-37.98 85.825 85.825 0 0 1-5.036-16.2 86.86 86.86 0 0 1 0-34.754 85.86 85.86 0 0 1 13-30.856 86.7 86.7 0 0 1 37.98-31.285 85.825 85.825 0 0 1 16.2-5.036 86.86 86.86 0 0 1 34.754 0 85.861 85.861 0 0 1 30.856 13 86.7 86.7 0 0 1 31.285 37.98 85.826 85.826 0 0 1 5.036 16.2 86.86 86.86 0 0 1 0 34.754 85.859 85.859 0 0 1-13 30.855 86.7 86.7 0 0 1-37.98 31.285 85.824 85.824 0 0 1-16.2 5.036 86.694 86.694 0 0 1-17.377 1.757zm0-169.617a83.687 83.687 0 0 0-16.774 1.695 82.861 82.861 0 0 0-29.778 12.547 83.7 83.7 0 0 0-30.2 36.665 82.817 82.817 0 0 0-4.859 15.628 83.861 83.861 0 0 0 0 33.548 82.86 82.86 0 0 0 12.547 29.778 83.7 83.7 0 0 0 36.665 30.2 82.816 82.816 0 0 0 15.628 4.859 83.86 83.86 0 0 0 33.549 0 82.861 82.861 0 0 0 29.778-12.547 83.7 83.7 0 0 0 30.2-36.665 82.817 82.817 0 0 0 4.859-15.628 83.861 83.861 0 0 0 0-33.548 82.86 82.86 0 0 0-12.547-29.778 83.7 83.7 0 0 0-36.665-30.2 82.817 82.817 0 0 0-15.628-4.859A83.687 83.687 0 0 0 270.809 1.5zm0 164.146A81.235 81.235 0 0 1 254.531 164a80.415 80.415 0 0 1-28.9-12.174 81.184 81.184 0 0 1-29.3-35.571 80.392 80.392 0 0 1-4.715-15.17 81.4 81.4 0 0 1 0-32.555 80.415 80.415 0 0 1 12.174-28.9 81.184 81.184 0 0 1 35.571-29.3 80.392 80.392 0 0 1 15.17-4.715 81.4 81.4 0 0 1 32.555 0 80.415 80.415 0 0 1 28.9 12.174 81.183 81.183 0 0 1 29.3 35.571A80.392 80.392 0 0 1 350 68.531a81.4 81.4 0 0 1 0 32.555 80.415 80.415 0 0 1-12.174 28.9 81.184 81.184 0 0 1-35.571 29.3A80.392 80.392 0 0 1 287.086 164a81.235 81.235 0 0 1-16.277 1.646zm0-158.674a78.229 78.229 0 0 0-15.675 1.583 77.415 77.415 0 0 0-27.824 11.721 78.184 78.184 0 0 0-28.216 34.255 77.386 77.386 0 0 0-4.539 14.6 78.4 78.4 0 0 0 0 31.35 77.415 77.415 0 0 0 11.721 27.823 78.184 78.184 0 0 0 34.255 28.216 77.386 77.386 0 0 0 14.6 4.539 78.4 78.4 0 0 0 31.35 0 77.415 77.415 0 0 0 27.823-11.721 78.184 78.184 0 0 0 28.216-34.255 77.39 77.39 0 0 0 4.539-14.6 78.4 78.4 0 0 0 0-31.35 77.415 77.415 0 0 0-11.717-27.823 78.184 78.184 0 0 0-34.255-28.216 77.387 77.387 0 0 0-14.6-4.539 78.229 78.229 0 0 0-15.678-1.583z" transform="translate(28 19.383)" style="fill:#fff"/>
        <path data-name="Path 845" d="M279 169.617v-5.472a79.337 79.337 0 0 0 0-158.673V0a84.809 84.809 0 0 1 0 169.617z" transform="translate(19.809 19.383)" style="fill:#fff"/>
        <path data-name="Path 866" d="M29.4 262.344a5.3 5.3 0 0 0 5.029 5.47l203.945.228a5.194 5.194 0 0 0 5.029-5.356l.107-162.158-213.9-.228z" transform="translate(2.213 2.281)" style="stroke:#fff;stroke-width:8px;fill:#333"/>
        <path data-name="Path 867" d="M251.424 97.07v-4.194a5.221 5.221 0 0 0-5.215-5.161L34.715 87.5a5.13 5.13 0 0 0-5.215 5.054v8.387l221.813.215v-1.075z" transform="translate(-1.694 6.586)" style="fill:#fff"/>
        <ellipse data-name="Ellipse 250" cx="1.398" cy="1.505" rx="1.398" ry="1.505" transform="translate(39.14 99.57)" style="fill:#333"/>
        <ellipse data-name="Ellipse 251" cx="1.398" cy="1.505" rx="1.398" ry="1.505" transform="translate(45.591 99.57)" style="fill:#333"/>
        <ellipse data-name="Ellipse 252" cx="1.398" cy="1.505" rx="1.398" ry="1.505" transform="translate(52.043 99.57)" style="fill:#333"/>
        <path data-name="Rectangle 1601" transform="translate(0 266.021)" style="fill:#fff" d="M0 0h395.699v8.602H0z"/>
        <path data-name="Rectangle 1602" transform="translate(60.366 129.978)" style="fill:#f5d006" d="M0 0h161.29v5.161H0z"/>
        <g data-name="Group 3027" transform="translate(46.989 213.229)">
            <circle data-name="Ellipse 253" cx="21.057" cy="21.057" r="21.057" style="fill:#f5d006"/>
            <path data-name="Path 868" d="M16.164 164.476a2.6 2.6 0 0 1-1.685-.842l-6.106-7.58a2.629 2.629 0 0 1 .421-3.58 2.629 2.629 0 0 1 3.58.421l4.211 5.264 12.845-12.844a2.531 2.531 0 0 1 3.58 3.58l-14.95 14.95a2.574 2.574 0 0 1-1.9.632z" transform="translate(.26 -131.838)" style="fill:#fff"/>
        </g>
        <g data-name="Group 3029">
            <path data-name="Path 870" d="M53.356 150.011H41.205a1.505 1.505 0 1 1 0-3.011h12.258a1.47 1.47 0 0 1 1.505 1.505 1.562 1.562 0 0 1-1.612 1.506z" transform="translate(20.988 -2.935)" style="fill:#fff"/>
            <path data-name="Path 871" d="M134.1 150.011H62.7a1.505 1.505 0 1 1 0-3.011h71.4a1.505 1.505 0 1 1 0 3.011z" transform="translate(22.606 -2.935)" style="fill:#fff"/>
            <path data-name="Path 872" d="M188.46 150.011h-19.355a1.505 1.505 0 1 1 0-3.011h19.355a1.505 1.505 0 1 1 0 3.011z" transform="translate(30.615 -2.935)" style="fill:#fff"/>
            <path data-name="Path 873" d="M53.356 160.011H41.205a1.505 1.505 0 1 1 0-3.011h12.258a1.47 1.47 0 0 1 1.505 1.505 1.562 1.562 0 0 1-1.612 1.506z" transform="translate(20.988 -2.182)" style="fill:#fff"/>
            <path data-name="Path 874" d="M144.856 160.011H62.705a1.505 1.505 0 1 1 0-3.011h82.151a1.505 1.505 0 0 1 0 3.011z" transform="translate(22.606 -2.182)" style="fill:#fff"/>
            <path data-name="Path 875" d="M188.46 160.011h-19.355a1.505 1.505 0 0 1 0-3.011h19.355a1.505 1.505 0 0 1 0 3.011z" transform="translate(30.615 -2.182)" style="fill:#fff"/>
            <path data-name="Path 876" d="M53.356 170.011H41.205a1.505 1.505 0 1 1 0-3.011h12.258a1.47 1.47 0 0 1 1.505 1.505 1.562 1.562 0 0 1-1.612 1.506z" transform="translate(20.988 -1.43)" style="fill:#fff"/>
            <path data-name="Path 877" d="M123.351 170.011H62.705a1.505 1.505 0 1 1 0-3.011h60.645a1.505 1.505 0 1 1 0 3.011z" transform="translate(22.606 -1.43)" style="fill:#fff"/>
            <path data-name="Path 878" d="M188.46 170.011h-19.355a1.505 1.505 0 0 1 0-3.011h19.355a1.505 1.505 0 0 1 0 3.011z" transform="translate(30.615 -1.43)" style="fill:#fff"/>
            <path data-name="Path 879" d="M53.356 180.011H41.205a1.505 1.505 0 1 1 0-3.011h12.258a1.47 1.47 0 0 1 1.505 1.505 1.562 1.562 0 0 1-1.612 1.506z" transform="translate(20.988 -.677)" style="fill:#fff"/>
            <path data-name="Path 880" d="M144.856 180.011H62.705a1.505 1.505 0 1 1 0-3.011h82.151a1.505 1.505 0 0 1 0 3.011z" transform="translate(22.606 -.677)" style="fill:#fff"/>
            <path data-name="Path 881" d="M188.46 180.011h-19.355a1.505 1.505 0 0 1 0-3.011h19.355a1.505 1.505 0 0 1 0 3.011z" transform="translate(30.615 -.677)" style="fill:#fff"/>
            <path data-name="Path 882" d="M53.356 190.011H41.205a1.505 1.505 0 1 1 0-3.011h12.258a1.47 1.47 0 0 1 1.505 1.505 1.562 1.562 0 0 1-1.612 1.506z" transform="translate(20.988 .076)" style="fill:#fff"/>
            <path data-name="Path 883" d="M134.1 190.011H62.7a1.505 1.505 0 1 1 0-3.011h71.4a1.505 1.505 0 0 1 0 3.011z" transform="translate(22.606 .076)" style="fill:#fff"/>
            <path data-name="Path 884" d="M188.46 190.011h-19.355a1.505 1.505 0 0 1 0-3.011h19.355a1.505 1.505 0 0 1 0 3.011z" transform="translate(30.615 .076)" style="fill:#fff"/>
        </g>
        <path data-name="Path 885" d="M255.768 245.977c-.538 0-.968-.584-.968-1.314s.43-1.314.968-1.314h5.914c.538 0 .968.584.968 1.314s-.43 1.314-.968 1.314zm11.72-.146c-.538 0-.968-.584-.968-1.314s.43-1.314.968-1.314h5.912c.538 0 .968.584.968 1.314s-.43 1.314-.968 1.314zm11.72 0c-.538 0-.968-.584-.968-1.314s.43-1.314.968-1.314h.645v-4.528c0-.73.43-1.315.968-1.315s.968.584.968 1.315v5.842c0 .73-.43 1.314-.968 1.314zm1.613-13.729c-.538 0-.968-.584-.968-1.314v-8.033c0-.73.43-1.314.968-1.314s.968.584.968 1.314v8.033c0 .73-.43 1.312-.967 1.312zm0-15.92c-.538 0-.968-.584-.968-1.314v-8.033c0-.73.43-1.314.968-1.314s.968.584.968 1.314v8.033c0 .732-.43 1.314-.967 1.314zm0-15.92c-.538 0-.968-.584-.968-1.314v-8.033c0-.73.43-1.314.968-1.314s.968.584.968 1.314v8.033c0 .73-.43 1.314-.967 1.314z" transform="translate(19.178 -.601)" style="fill:#fff"/>
        <g data-name="Group 3035">
            <g data-name="Group 3032">
                <g data-name="Group 3031">
                    <g data-name="Group 3030" transform="translate(180.685 200.148)">
                        <circle data-name="Ellipse 254" cx="43.011" cy="43.011" r="43.011" transform="translate(1.465 1.465)" style="fill:#fff"/>
                        <path data-name="Path 887" d="M212.513 275.022a44.45 44.45 0 1 1 31.505-75.806 44.409 44.409 0 0 1-31.505 75.806zm0-85.914a41.559 41.559 0 1 0 29.355 12.258 40.672 40.672 0 0 0-29.355-12.258z" transform="translate(-168.037 -186.137)" style="fill:#fff"/>
                    </g>
                </g>
            </g>
            <g data-name="Group 3034">
                <g data-name="Group 3033" transform="translate(183.696 203.199)">
                    <circle data-name="Ellipse 255" cx="36.129" cy="36.129" r="36.129" transform="rotate(-80.782 41.917 35.663)" style="fill:#333"/>
                </g>
            </g>
            <g data-name="Group 20609">
                <path data-name="Path 11306" d="M1290.095 275.23a14.351 14.351 0 0 1 10.092-4.212h.076a14.493 14.493 0 0 1 14.324 14.038c.177 15.193-23.075 25.906-24.065 26.355l-.426.193z" transform="translate(-1064.8 -44.244)" style="fill:#f5d006"/>
                <path data-name="Path 11308" d="M1203.031 275.23a14.185 14.185 0 0 0-10.014-4.212h-.075a14.434 14.434 0 0 0-14.213 14.038c-.176 15.193 22.9 25.906 23.879 26.355l.423.193z" transform="translate(-977.547 -44.244)" style="opacity:.745;fill:#f5d006"/>
            </g>
        </g>
    </g>
    <g data-name="Group 20413">
        <g data-name="Group 11790" style="isolation:isolate">
            <path d="M354.181 66.6a46.009 46.009 0 0 0-41.938-45.824 32.113 32.113 0 0 0-4.158-.271 29.092 29.092 0 0 0-3.886.271 45.668 45.668 0 0 0-32.719 17.986l-.9 1.265-.814 1.265a45.124 45.124 0 0 0-7.866 25.484 46.008 46.008 0 0 0 41.938 45.824 25.667 25.667 0 0 0 8.315 0 46.521 46.521 0 0 0 42.028-46zm-25.036 33.98h-6.417a53.289 53.289 0 0 0 4.429-12.744h10.756a42.247 42.247 0 0 1-8.767 12.744zm-50.886-12.835h10.756a51.951 51.951 0 0 0 4.429 12.744h-6.417a40.13 40.13 0 0 1-8.768-12.744zm-13.286-19.794h5.875a52.616 52.616 0 0 0 3.073 16.721h-4.881a41.384 41.384 0 0 1-4.067-16.721zm13.738-23.5a41.826 41.826 0 0 1 8.315-11.84h6.417a59.364 59.364 0 0 0-3.706 9.671l-.271 1.356-.271 1.356c0 .181 0 .271-.181.271h-10.755zm59.2.9h-10.754a51.956 51.956 0 0 0-4.429-12.744h6.417a40.129 40.129 0 0 1 8.767 12.744zm13.2 19.794h-5.965a52.614 52.614 0 0 0-3.073-16.721h4.881a38.425 38.425 0 0 1 4.158 16.721zm-8.767 0H329.6a94.539 94.539 0 0 0-1.717-16.721h11.208a48.24 48.24 0 0 1 3.254 16.721zm-50.075-20.874a49.553 49.553 0 0 1 4.61-11.84h9.852v12.744H292c.088-.181.088-.452.269-.904zm2.712-14.642h-4.79a25.461 25.461 0 0 1 8.135-4.429c-1.175 1.356-2.26 2.892-3.344 4.429zm11.75-6.146v6.146H298.6c2.436-3.529 5.147-5.694 8.13-6.146zm2.892 6.146v-6.146c2.892.633 5.694 2.8 7.954 6.146zm9.852 2.983a54.3 54.3 0 0 1 4.79 12.744h-14.643V32.611zM306.73 48.248v16.721h-17.082a94.528 94.528 0 0 1 1.717-16.721zm0 19.7v16.724h-15.365a94.65 94.65 0 0 1-1.808-16.721zm0 19.794v12.744h-9.852a50.583 50.583 0 0 1-4.79-12.744zm0 15.727v6.146c-2.892-.633-5.694-2.8-8.135-6.146zm2.892 0h7.954c-2.44 3.344-5.061 5.513-7.954 6.146zm0-2.892V87.745h14.642a54.3 54.3 0 0 1-4.79 12.744zm0-15.727v-16.9H326.7a94.647 94.647 0 0 1-1.8 16.722h-15.187v.181zm0-19.7v-16.9h15.365a94.644 94.644 0 0 1 1.813 16.719h-17.268v.181zm11.569-35.521a28.343 28.343 0 0 0-3.525-4.61 30.035 30.035 0 0 1 8.315 4.61zM288.2 48.248a86.751 86.751 0 0 0-1.717 16.721H273.74a48.242 48.242 0 0 1 3.254-16.721zm-17.354 16.9h-5.875a42.809 42.809 0 0 1 3.977-16.721h4.881a58.065 58.065 0 0 0-2.981 16.722zm2.983 2.8h12.744a94.536 94.536 0 0 0 1.717 16.721h-11.206a48.241 48.241 0 0 1-3.254-16.721zm21.15 35.521a44.343 44.343 0 0 0 3.525 4.61 30.033 30.033 0 0 1-8.315-4.61zm26.211 0h4.79a30.034 30.034 0 0 1-8.315 4.61 22.239 22.239 0 0 0 3.525-4.61zm6.688-18.619a94.539 94.539 0 0 0 1.722-16.718h12.744a48.24 48.24 0 0 1-3.254 16.721zm17.444-16.9h5.965a42.811 42.811 0 0 1-3.977 16.721h-4.881a61.814 61.814 0 0 0 2.892-16.721zm.271-22.6h-4.61a42.823 42.823 0 0 0-8.044-12.744h1.361a38.253 38.253 0 0 1 11.3 12.744zM281.6 32.611h1.356a50.449 50.449 0 0 0-6.327 9.219L276 43.186l-.633 1.356-.452.9h-4.429a34.934 34.934 0 0 1 2.44-3.886 42.842 42.842 0 0 1 8.674-8.945zm-11.023 55.134h4.429a44.43 44.43 0 0 0 7.954 12.744h-1.36a42.762 42.762 0 0 1-11.023-12.744zm63.991 12.834h-1.356a50.294 50.294 0 0 0 7.954-12.744h4.61a45.746 45.746 0 0 1-11.208 12.744z" transform="translate(-8.521 17.618)" style="fill:#fff"/>
            <path data-name="Path_910_1_ - Outline" d="M308.086 19.75a32.8 32.8 0 0 1 4.24.276A46.68 46.68 0 0 1 342.6 98.137a47.391 47.391 0 0 1-30.352 15.208 27.154 27.154 0 0 1-4.288.345 25.915 25.915 0 0 1-4.218-.344 46.759 46.759 0 0 1-42.592-46.57 46.086 46.086 0 0 1 2.033-13.54 45.329 45.329 0 0 1 5.956-12.363l.828-1.286.916-1.282a46.47 46.47 0 0 1 33.236-18.28 29.887 29.887 0 0 1 3.967-.275zm-.124 92.44a25.654 25.654 0 0 0 4.072-.329l.046-.006a45.771 45.771 0 0 0 41.352-45.262 45.259 45.259 0 0 0-41.253-45.074h-.034a31.264 31.264 0 0 0-4.059-.265 28.424 28.424 0 0 0-3.787.265h-.037a45.083 45.083 0 0 0-17.992 5.412A44.915 44.915 0 0 0 272.085 39.2l-.887 1.242-.816 1.269a43.829 43.829 0 0 0-5.765 11.963 44.586 44.586 0 0 0-1.967 13.1 45.259 45.259 0 0 0 41.25 45.08l.058.007a24.4 24.4 0 0 0 4.004.329zm.911-89.639.91.2a11.385 11.385 0 0 1 4.513 2.2 18.276 18.276 0 0 1 3.9 4.263l.79 1.17h-10.114zm7.23 6.328a12.929 12.929 0 0 0-5.73-4.407v4.407zm-8.623-6.269v7.768h-10.316l.815-1.177c2.644-3.819 5.551-5.993 8.639-6.461zm-1.5 6.268V24.41a11.956 11.956 0 0 0-5.9 4.469zm-5.3-5.256-1.793 2.068c-1.15 1.327-2.242 2.874-3.3 4.369l-.224.317h-7.287l1.634-1.331a26.034 26.034 0 0 1 8.371-4.559zm-6.092 5.256c.465-.658.937-1.322 1.421-1.973a24.141 24.141 0 0 0-3.553 1.973zm23.331-4.564a30.8 30.8 0 0 1 8.522 4.725l1.705 1.34h-7.379l-.219-.359a27.726 27.726 0 0 0-3.432-4.488zm5.744 4.564a29.211 29.211 0 0 0-3.41-1.95q.721.954 1.351 1.95zm-27.237 2.8h11.054v14.247h-16.7l.537-1.075c.009-.026.023-.09.035-.143a4.484 4.484 0 0 1 .195-.661 50.369 50.369 0 0 1 4.666-11.969zm9.551 1.5h-8.651A48.557 48.557 0 0 0 293 44.425h12.98zm-24.628-1.319h3.255l-1.079 1.241a49.387 49.387 0 0 0-6.222 9.064l-1.265 2.71-.659 1.318h-6.142l.588-1.1a35.32 35.32 0 0 1 2.492-3.969v-.006a43.537 43.537 0 0 1 8.83-9.1zm-6.66 12.354 1.281-2.742a52.646 52.646 0 0 1 4.488-6.987A43.071 43.071 0 0 0 273.534 42a36.136 36.136 0 0 0-1.767 2.7h2.684zm12.024-12.354h7.941l-.543 1.085a58.528 58.528 0 0 0-3.648 9.516l-.522 2.607a1.042 1.042 0 0 1-.1.462.882.882 0 0 1-.829.482h-12.03l1.059-1.905a42.585 42.585 0 0 1 8.459-12.025zm5.532 1.5h-4.909a41.084 41.084 0 0 0-7.828 11.154h9.016l.483-2.413.01-.033a62.773 62.773 0 0 1 3.231-8.706zm16.624-1.5h11.052l.212.4a54.755 54.755 0 0 1 4.857 12.919l.227.928h-16.345zm10.15 1.5h-8.65v11.246H323.3a52.915 52.915 0 0 0-4.278-11.244zm2.493-1.5h7.936l.218.213a40.644 40.644 0 0 1 8.934 12.985l.455 1.049h-12.511l-.122-.6a50.858 50.858 0 0 0-4.365-12.559zm7.324 1.5h-4.912a52.269 52.269 0 0 1 3.839 11.244h8.986a39.084 39.084 0 0 0-7.911-11.242zm2.413-1.5h3.285l.2.139a38.89 38.89 0 0 1 11.519 12.992l.616 1.113h-6.388l-.189-.469a42.214 42.214 0 0 0-7.9-12.522zM344.3 44.605a37.39 37.39 0 0 0-8.838-10.179 43.272 43.272 0 0 1 6.027 10.179zM276.481 47.5h12.632l-.176.895a86.31 86.31 0 0 0-1.7 16.576v.75h-14.259l.012-.762a48.719 48.719 0 0 1 3.3-16.981zm10.813 1.5h-9.784a47.188 47.188 0 0 0-3 15.221h11.23A87.794 87.794 0 0 1 287.294 49zm3.454-1.5h16.732v18.219h-18.594l.012-.762a95.572 95.572 0 0 1 1.731-16.857zM305.98 49h-14a94.053 94.053 0 0 0-1.571 15.221h15.571zm2.892-1.5H325.6l.119.605a95.612 95.612 0 0 1 1.822 16.854l.012.762h-17.181v.179h-1.59v-1.681h.09zm15.5 1.5h-14v15.219h15.658A94.246 94.246 0 0 0 324.369 49zm-55.9-1.319h6.4l-.336.991a56.99 56.99 0 0 0-2.943 16.5l-.023.726h-7.37l.024-.773a43.559 43.559 0 0 1 4.047-17.014zm4.323 1.5h-3.364a42.059 42.059 0 0 0-3.677 15.219h4.372a58.547 58.547 0 0 1 2.669-15.222zm54.173-1.5H339.6l.186.478a48.717 48.717 0 0 1 3.3 16.981l.012.762h-14.239l-.012-.738a94.08 94.08 0 0 0-1.7-16.588zm11.6 1.5h-9.785a95.747 95.747 0 0 1 1.55 15.219h11.241a47.186 47.186 0 0 0-3.002-15.222zm2.435-1.5h6.4l.209.41a39.164 39.164 0 0 1 4.239 17.049l.012.762H344.4l-.012-.738a51.529 51.529 0 0 0-3.03-16.481zm5.481 1.5h-3.365a52.957 52.957 0 0 1 2.757 15.219h4.463a37.687 37.687 0 0 0-3.851-15.222zM264.2 67.2h7.387l.012.738a51.531 51.531 0 0 0 3.03 16.481l.356 1h-6.415l-.2-.424a41.689 41.689 0 0 1-2.968-8.307 42.828 42.828 0 0 1-1.173-8.717zm5.916 1.5h-4.361a40.362 40.362 0 0 0 3.76 15.221h3.355a52.958 52.958 0 0 1-2.755-15.221zm2.954-1.5h14.244l.012.738a94.075 94.075 0 0 0 1.7 16.588l.176.895h-12.63l-.186-.478a48.718 48.718 0 0 1-3.3-16.981zm12.771 1.5H274.6a47.186 47.186 0 0 0 3 15.221h9.785a95.745 95.745 0 0 1-1.546-15.221zm2.956-1.5h18.683v18.222h-16.732l-.119-.605a95.619 95.619 0 0 1-1.822-16.854zm17.185 1.5h-15.659a94.257 94.257 0 0 0 1.661 15.221h14zm2.892-1.5h18.595l-.012.762a95.615 95.615 0 0 1-1.822 16.854l-.119.605h-15.053v.179h-1.59zm17.067 1.5h-15.569v15.222h13.906a94.249 94.249 0 0 0 1.661-15.222zm18.659-1.5h7.466l-.024.773a43.561 43.561 0 0 1-4.047 17.014l-.2.433h-6.383l.309-.976a61.172 61.172 0 0 0 2.858-16.518zm5.911 1.5h-4.462a62.63 62.63 0 0 1-2.6 15.221h3.384a42.062 42.062 0 0 0 3.675-15.221zm-21.649-1.319H343.1l-.012.762a48.717 48.717 0 0 1-3.3 16.981l-.186.478h-12.634l.176-.895a94.08 94.08 0 0 0 1.7-16.588zm12.714 1.5h-11.243a95.746 95.746 0 0 1-1.546 15.219h9.785a47.186 47.186 0 0 0 3.001-15.218zM269.293 87h6.218l.189.469a43.778 43.778 0 0 0 7.821 12.529l1.1 1.246h-3.273l-.2-.157a43.761 43.761 0 0 1-11.22-12.968zm5.21 1.5h-2.618a42.347 42.347 0 0 0 8.443 9.979A44.572 44.572 0 0 1 274.5 88.5zm2.613-1.5h12.511l.122.6a50.854 50.854 0 0 0 4.365 12.559l.543 1.085h-7.936l-.218-.213a40.645 40.645 0 0 1-8.931-12.982zm11.29 1.5h-8.986a39.085 39.085 0 0 0 7.913 11.244h4.912a52.263 52.263 0 0 1-3.839-11.244zm2.745-1.5h16.329v14.244h-11.052l-.212-.4a51.534 51.534 0 0 1-4.86-12.933zm14.829 1.5h-12.945a50.226 50.226 0 0 0 4.3 11.244h8.65zm2.892-1.5h16.348l-.227.928a54.754 54.754 0 0 1-4.857 12.919l-.21.393-11.054.1zm14.428 1.5h-12.928v11.323l8.647-.079A52.912 52.912 0 0 0 323.3 88.5zm3.243-1.41h12.52l-.466 1.053a42.75 42.75 0 0 1-8.923 12.971l-.22.22h-7.929l.528-1.079a52.77 52.77 0 0 0 4.368-12.565zm10.2 1.5h-8.978a53.993 53.993 0 0 1-3.848 11.244h4.916a41.294 41.294 0 0 0 7.91-11.248zm3.93-1.5h6.419l-.671 1.132a46.275 46.275 0 0 1-11.392 12.953l-.2.159h-3.244l1.061-1.238a49.236 49.236 0 0 0 7.835-12.553zm3.764 1.5h-2.78a50.722 50.722 0 0 1-5.951 10.1 44.731 44.731 0 0 0 8.731-10.104zm-56.416 14.136h7.36l.223.334a43.794 43.794 0 0 0 3.465 4.532l-.821 1.2a30.8 30.8 0 0 1-8.522-4.725zm6.56 1.5H292.5a29.215 29.215 0 0 0 3.516 2q-.74-.981-1.435-2.004zm2.539-1.5h10.36v7.828l-.91-.2c-3.023-.661-5.99-2.887-8.58-6.437zm8.86 1.5h-5.85a13.7 13.7 0 0 0 5.85 4.408zm2.892-1.5h10.18l-.87 1.192c-2.687 3.683-5.435 5.788-8.4 6.437l-.91.2zm7.179 1.5h-5.679v4.407a13.191 13.191 0 0 0 5.679-4.411zm4.708-1.5h7.391l-1.705 1.34a30.8 30.8 0 0 1-8.522 4.725l-.787-1.235a21.592 21.592 0 0 0 3.406-4.455zm2.908 1.5h-2.048q-.6.993-1.283 1.911a29.2 29.2 0 0 0 3.331-1.915z" transform="translate(-8.521 17.618)" style="fill:#fff"/>
        </g>
    </g>
</svg>
