<svg xmlns="http://www.w3.org/2000/svg" width="377.558" height="231.087" viewBox="0 0 377.558 231.087">
    <defs>
        <clipPath id="ca3lwmltra">
            <path data-name="Rectangle 13132" style="fill:none" d="M0 0h377.558v231.087H0z"/>
        </clipPath>
        <clipPath id="hwkbe3j7lb">
            <path data-name="Rectangle 13129" transform="translate(110.876 170.257)" style="fill:none" d="M0 0h.036v.145H0z"/>
        </clipPath>
    </defs>
    <g data-name="Group 20647" style="clip-path:url(#ca3lwmltra)">
        <g data-name="Group 20646">
            <g data-name="Group 20645" style="clip-path:url(#ca3lwmltra)">
                <path data-name="Path 17348" d="M340.981 221.781H63.285V9c0-4.97 3.392-9 7.577-9h262.492c4.185 0 7.577 4.029 7.577 9v212.81z" style="fill:#fff"/>
                <path data-name="Path 17349" d="M218.434 221.787H74.071V16.037H222.4" style="fill:#ebeaea"/>
                <path data-name="Path 17350" d="M188.49 16.037h142.1v205.75H189.2" style="fill:#fff"/>
                <path data-name="Path 17351" d="m217.893 156.069 8.034 64.917 130.157-15.863-8.032-64.91z" style="fill:#333"/>
                <path data-name="Path 17352" d="m243.11 211.566 94-11.455a10.885 10.885 0 0 1 9.476-12.133h.032l-3.568-28.852a10.935 10.935 0 0 1-12.185-9.492l-94.008 11.449a10.888 10.888 0 0 1-9.471 12.141h-.032l3.565 28.844a10.941 10.941 0 0 1 12.186 9.5m41.646-49a18.168 18.168 0 1 1-15.84 20.232 18.168 18.168 0 0 1 15.845-20.232z" style="fill:#f5d006"/>
                <path data-name="Path 17353" d="m217.893 156.069 8.034 64.917 130.157-15.864-8.032-64.909zm133.316 45.254-121.482 14.8-6.959-56.257 121.482-14.8z" style="fill:#f5d006"/>
                <path data-name="Path 17354" d="m281.346 185.468-1.59 3a14.036 14.036 0 0 0 7.488 2.111l.373 3.009 2.625-.318-.367-2.948c3.788-.83 6.111-3.343 5.706-6.619l-.008-.061c-.4-3.219-2.579-4.782-7.309-5.371l-.716-5.776a11.217 11.217 0 0 1 4.344 1.454l1.34-3.035a11.964 11.964 0 0 0-5.954-1.6l-.222-1.806-2.626.318.215 1.747c-3.73.791-6.023 3.3-5.623 6.519l.007.064c.421 3.4 2.673 4.774 7.221 5.381l.731 5.925a11.194 11.194 0 0 1-5.635-2m7.361-3.647c2.409.41 3.171 1.142 3.335 2.467l.008.057c.174 1.448-.762 2.505-2.672 2.953zm-6.148-6.336v-.03c-.164-1.326.681-2.432 2.586-2.849l.658 5.324c-2.411-.438-3.087-1.182-3.241-2.445" style="fill:#dcebf8"/>
                <path data-name="Path 17355" d="M291.894 173.95a11.233 11.233 0 0 0-4.345-1.454l.717 5.776c4.727.585 6.908 2.153 7.309 5.371l.008.061c.407 3.279-1.917 5.791-5.706 6.619l.366 2.948-2.625.318-.372-3.009a14.032 14.032 0 0 1-7.489-2.109l1.59-3a11.2 11.2 0 0 0 5.638 2l-.732-5.928c-4.55-.6-6.8-1.98-7.223-5.377l-.006-.06c-.4-3.222 1.893-5.726 5.623-6.519l-.216-1.75 2.626-.318.223 1.8a11.965 11.965 0 0 1 5.954 1.6zm-6.092 3.982-.659-5.327c-1.909.415-2.749 1.526-2.586 2.849v.031c.154 1.263.83 2.007 3.242 2.447m2.9 3.892.676 5.473c1.906-.446 2.842-1.506 2.667-2.951l-.009-.06c-.161-1.323-.924-2.054-3.335-2.463z" style="fill:#fff"/>
                <path data-name="Path 17356" d="m221.336 158.533 24.585 60.6 121.6-48.93-24.584-60.6z" style="fill:#333"/>
                <path data-name="Path 17357" d="m260.077 205.606 87.823-35.337a10.874 10.874 0 0 1 5.993-14.163l.042-.017-10.927-26.934a10.95 10.95 0 0 1-14.23-6.022l-87.821 35.338a10.874 10.874 0 0 1-6 14.162l-.038.015 10.926 26.935a10.949 10.949 0 0 1 14.231 6.023m27.524-58.071a18.166 18.166 0 1 1-10.055 23.641l-.005-.011a18.247 18.247 0 0 1 10.06-23.63" style="fill:#fff"/>
                <path data-name="Path 17358" d="m221.336 158.533 24.584 60.6 121.6-48.931-24.584-60.6zm140.49 9.261-113.491 45.668-21.306-52.521 113.491-45.668z" style="fill:#fff"/>
                <path data-name="Path 17359" d="m290.237 170.529-.753 3.312a14.061 14.061 0 0 0 7.781.1l1.135 2.81 2.449-.989-1.112-2.753c3.444-1.779 5.036-4.8 3.794-7.868l-.022-.054c-1.214-3.005-3.736-3.952-8.451-3.3l-2.191-5.393a11.242 11.242 0 0 1 4.57.286l.509-3.279a11.926 11.926 0 0 0-6.166 0l-.682-1.687-2.45.986.659 1.63c-3.4 1.727-4.96 4.746-3.742 7.746l.023.058c1.284 3.176 3.821 3.921 8.369 3.332l2.246 5.537a11.2 11.2 0 0 1-5.966-.48m6.163-5.423c2.431-.228 3.36.281 3.861 1.517l.022.055c.546 1.351-.086 2.617-1.8 3.539zm-7.577-4.53-.011-.027c-.5-1.235.026-2.526 1.76-3.42l2.017 4.971c-2.445.2-3.287-.344-3.766-1.524" style="fill:#7ab4e2"/>
                <path data-name="Path 17360" d="M297.438 156.687a11.278 11.278 0 0 0-4.57-.286l2.188 5.394c4.717-.655 7.235.289 8.451 3.3l.022.056c1.239 3.066-.352 6.089-3.793 7.869l1.112 2.752-2.449.99-1.135-2.811a14.054 14.054 0 0 1-7.779-.107l.753-3.313a11.151 11.151 0 0 0 5.965.481l-2.244-5.534c-4.55.584-7.083-.162-8.37-3.336l-.024-.057c-1.214-3 .346-6.02 3.745-7.747l-.661-1.629 2.449-.99.682 1.688a11.92 11.92 0 0 1 6.167 0zm-4.853 5.412-2.013-4.97c-1.734.894-2.261 2.185-1.759 3.42l.01.027c.479 1.18 1.322 1.723 3.767 1.525zm3.815 3.007 2.074 5.112c1.723-.923 2.357-2.19 1.808-3.534l-.023-.057c-.5-1.236-1.427-1.749-3.859-1.521" style="fill:#fff"/>
                <path data-name="Path 17361" d="m229.941 153.921 39.5 52.25 104.692-78.646-39.5-52.249z" style="fill:#333"/>
                <path data-name="Path 17362" d="m279.589 189.443 75.61-56.8a10.87 10.87 0 0 1 2.1-15.228l.043-.032-17.555-23.224a10.954 10.954 0 0 1-15.308-2.153l-75.612 56.8a10.877 10.877 0 0 1-2.107 15.239l-.031.023 17.554 23.22a10.952 10.952 0 0 1 15.306 2.157m11.475-63.228a18.194 18.194 0 1 1-3.528 25.487l-.043-.057a18.256 18.256 0 0 1 3.571-25.43" style="fill:#f5d006"/>
                <path data-name="Path 17363" d="m229.941 153.921 39.5 52.249 104.693-78.645-39.5-52.249zM368 126.664l-97.711 73.4-34.227-45.284 97.71-73.4z" style="fill:#f5d006"/>
                <path data-name="Path 17364" d="m299.593 147.761.132 3.4a14.061 14.061 0 0 0 7.536-1.9l1.83 2.42 2.112-1.585-1.794-2.374c2.864-2.606 3.614-5.941 1.617-8.58l-.036-.049c-1.959-2.592-4.637-2.862-9.019-1.013l-3.514-4.654a11.27 11.27 0 0 1 4.488-.9l-.362-3.3a11.917 11.917 0 0 0-5.951 1.587l-1.1-1.453-2.111 1.585 1.063 1.4c-2.831 2.546-3.563 5.861-1.6 8.453l.036.05c2.069 2.739 4.709 2.807 8.951 1.065l3.606 4.768a11.174 11.174 0 0 1-5.885 1.082m4.538-6.829c2.292-.846 3.32-.593 4.123.471l.04.051c.877 1.165.6 2.551-.828 3.893zm-8.493-2.429-.021-.023c-.8-1.07-.631-2.451.814-3.761l3.238 4.288c-2.306.824-3.261.512-4.031-.5" style="fill:#3b93d0"/>
                <path data-name="Path 17365" d="M302.945 132.518a11.261 11.261 0 0 0-4.489.9l3.518 4.654c4.382-1.851 7.059-1.581 9.018 1.011l.036.049c2 2.643 1.244 5.975-1.617 8.58l1.795 2.374-2.113 1.584-1.829-2.419a14.038 14.038 0 0 1-7.538 1.9l-.132-3.4a11.2 11.2 0 0 0 5.882-1.076l-3.61-4.77c-4.237 1.743-6.874 1.674-8.95-1.063l-.03-.05c-1.961-2.591-1.235-5.909 1.6-8.453l-1.064-1.4 2.112-1.586 1.1 1.454a11.908 11.908 0 0 1 5.954-1.588zm-3.276 6.489-3.242-4.287c-1.441 1.309-1.615 2.69-.81 3.76l.019.024c.771 1.015 1.727 1.326 4.033.5m4.463 1.927 3.332 4.409c1.425-1.337 1.7-2.724.828-3.894l-.039-.048c-.8-1.062-1.83-1.315-4.122-.469z" style="fill:#fff"/>
                <path data-name="Path 17366" d="m224.243 146.535 47.984 44.65 89.287-95.6-47.984-44.647z" style="fill:#333"/>
                <path data-name="Path 17367" d="m279.3 172.947 64.482-69.047a10.891 10.891 0 0 1-.574-15.39l.018-.018-21.326-19.84a10.938 10.938 0 0 1-15.439.524l-64.485 69.043a10.889 10.889 0 0 1 .578 15.388l-.019.02 21.326 19.843a10.934 10.934 0 0 1 15.436-.523m.253-64.289a18.207 18.207 0 1 1 .982 25.73l-.053-.05a18.227 18.227 0 0 1-.929-25.68" style="fill:#fff"/>
                <path data-name="Path 17368" d="m224.243 146.534 47.984 44.65 89.287-95.6-47.984-44.647zM355.34 95.8l-83.333 89.225-41.589-38.7L313.752 57.1z" style="fill:#fff"/>
                <path data-name="Path 17369" d="m291.706 128.417.72 3.322a13.972 13.972 0 0 0 7.087-3.184l2.224 2.074 1.8-1.929-2.175-2.028c2.362-3.064 2.515-6.48.091-8.735l-.043-.042c-2.381-2.214-5.061-2.016-9.052.564l-4.274-3.973a11.242 11.242 0 0 1 4.261-1.667l-.933-3.188a11.859 11.859 0 0 0-5.585 2.594l-1.331-1.242-1.8 1.926 1.29 1.2c-2.342 3-2.479 6.392-.1 8.606l.043.042c2.519 2.339 5.119 1.952 8.988-.5l4.384 4.077a11.128 11.128 0 0 1-5.6 2.081m3.274-7.512c2.107-1.232 3.162-1.161 4.14-.25l.043.042c1.069.994 1.035 2.409-.133 3.973zm-8.785-.927-.022-.02c-.978-.911-1.055-2.3.146-3.845l3.935 3.662c-2.13 1.212-3.122 1.073-4.059.2" style="fill:#257abe"/>
                <path data-name="Path 17370" d="M292.344 112.819a11.239 11.239 0 0 0-4.26 1.668l4.271 3.973c3.991-2.58 6.673-2.773 9.053-.564l.043.042c2.424 2.256 2.267 5.673-.092 8.735l2.18 2.027-1.8 1.929-2.223-2.074a13.984 13.984 0 0 1-7.09 3.18l-.72-3.322a11.137 11.137 0 0 0 5.6-2.081l-4.384-4.077c-3.867 2.455-6.473 2.845-8.986.506l-.043-.042c-2.382-2.217-2.247-5.612.1-8.608l-1.292-1.2 1.8-1.925 1.334 1.24a11.873 11.873 0 0 1 5.584-2.593zm-2.091 6.957-3.934-3.663c-1.2 1.543-1.123 2.934-.145 3.845l.022.02c.936.87 1.928 1.009 4.057-.2m4.726 1.129 4.048 3.766c1.172-1.563 1.2-2.982.136-3.974l-.043-.042c-.979-.911-2.034-.982-4.141.25" style="fill:#fff"/>
                <path data-name="Path 17371" d="M39.65 120.547 73.9 106.71c.01-.078.015-.157.024-.236a.865.865 0 0 0-.006-.125L109 122.17c13.6 2.647 15.094 16.02 15.094 16.02L126 159.277l1.393 24.456-18.774 2.482-1.632-16.4-1.087 49.939H41.167l1.024-7.946-1.434-45.128" style="fill:#c3a713"/>
                <g data-name="Group 20644" style="opacity:.1;isolation:isolate">
                    <g data-name="Group 20643">
                        <g data-name="Group 20642" style="clip-path:url(#hwkbe3j7lb)">
                            <path data-name="Path 17372" d="m110.912 170.4-.036-.142c.026-.017.037.042.036.142" style="fill:#040505"/>
                        </g>
                    </g>
                </g>
                <path data-name="Path 17373" d="M61.505 71.988s-7.354-12.272-12.446.213 5.965 15.571 5.965 15.571 7.006.026 7.442-5.523a31.518 31.518 0 0 0-.961-10.261" style="fill:#1a1a1a"/>
                <path data-name="Path 17374" d="M63.8 87.288 60.607 115.2s14.2 9.845 27.227 4.571L84 88.2z" style="fill:#9a7069"/>
                <path data-name="Path 17375" d="M79.352 105.489c1.111.415 6.138 1.519 6.766 1.349l-.841-7.43-15-4.978s-1.678 7.036 9.075 11.059" style="fill:#6e453e"/>
                <path data-name="Path 17376" d="M66.09 94.646c-6.767-5.328-9.738-18.013-9.2-26.052 1.643-23.2 35.233-24.563 42.852-7.069 2.529 5.808 3.542 15.485 1.886 24.2-1.824 9.591-2.455 16.593-5.789 19.115-2.608 1.974-7.054 1.036-14.628-2.192z" style="fill:#9a7069"/>
                <path data-name="Path 17377" d="M64.2 86.654c-.972 1.185.192 4.1-1.163 4.816-1.823-2.947-4.879-6.165-5.911-9.711a49.781 49.781 0 0 1-1.968-8.074c-.264-2.326.372-7.08.672-9.1 1.423-9.353 10.286-15.972 20.632-16.385 0 0 10.185-.739 15.273 2.686 1.317.887 6.487 3.992 8.545 9.3 1.631 4.21.672 6.241-.192 7.244-3.984 3.132-19.873.489-19.873.489-.768 1.665-5.352 2.3-6.072 10.669l-1.716.5c-.515-.049-.768-.637-.987-1.5a5.35 5.35 0 0 0-3.194-3.572 2.807 2.807 0 0 0-1.374-.069c-1.461.612-2.439 1.5-2.478 3.121-.155 1.8.978 3.874 1.762 5.434a2.3 2.3 0 0 1 .313 1.852z" style="fill:#1a1a1a"/>
                <path data-name="Path 17378" d="M26.625 154.439c3.476-2.162 10.441-1.7 11.473 5.77.561 4.064-2.457 43.345-2.457 43.345l42.31 8.553 1.533 8.651s-52.47-.7-54.574-1.16c-7.181-1.565-6.736-39.164-.828-57.521.635-1.975-.616-5.672 2.543-7.638" style="fill:#9a7069"/>
                <path data-name="Path 17379" d="m18.2 181.625 21.037 3.175 3.75-62.262-3.365-1.8c-9.249 2.441-16 10.351-16.9 12.8H22.7l-4.5 48.081" style="fill:#c3a713"/>
                <path data-name="Path 17380" d="m121.16 146.153 2.068 9.847 16.281 1.1s-2.253-20.176-.437-20.427c1.936-.266 8.049-3.237 9.332-4.869 5.079-6.465 2.34-10.149 3.316-14.887 2.244-10.922-.441-13.9-2.015-15.98-1.9-2.513-1.4-3.536-4.813-5.949-2.194-1.551-7.679-3.537-10.443-3.537-3.147 0-8.873-.027-12.341 1.925-5.468 3.079-7.27 10.337-7.758 11.87-.7 2.189-.2 5.633.1 8.509.49 4.6 6.708 10.52 8.246 16.663 1.182 4.712-1.082 10.023-1.539 15.731" style="fill:#72534d"/>
                <path data-name="Path 17381" d="M159.526 98.6c1.077 3.271-8.029 4.229-8.029 6.557a5.226 5.226 0 0 0-2.947-3.023s-8.03 6.6-14.711 6.187c-5.981-.366-3.721 9.9-6.26 10.566s-1.887-3.963-2.2-4.191-8.667-2.071-1.938 8.22c0 0-1.6 4.016-2.433 3.2-7.012-6.926-8.5-9.929-9.082-14.622-.6-4.888-1.2-9.1 1.34-13.225 2.756-4.475 8.36-6.743 13.065-8.623l.748-.3a17.211 17.211 0 0 1 6.391-1.234h2.473c4.654 0 16.461 1.8 19.7 5.372a30.763 30.763 0 0 1 3.883 5.116" style="fill:#231e2c"/>
                <path data-name="Path 17382" d="M165.185 134.925c3.66 3.953 3.538 12.321 2.888 17.648.044.13-13.621 3.366-13.5 8.219.116 4.578 7.613 59.554 7.613 59.554s-8.077-1.376-11.1 0c-12.508 5.7-45.612 3.727-45.626 1.456-.113-18.676.539-63.6-.511-66.372-.71-1.879.31-8.378.511-8.912l14.947-6.794s5.629 8.16 15.093 6.96c3.314-.42 2.863-5.309 2.863-5.309a22.371 22.371 0 0 1 8.721-4.417 65.581 65.581 0 0 1 18.1-2.033" style="fill:#fff"/>
                <path data-name="Path 17383" d="m222.444 115.887-14.017 8.513-10.227 11.994c-2.414 1.175-7.593-11.768-7.6-16.1.033-2.063.119-7.453.308-9.545 0 0 .206-3.821.265-7.5l-.265-2.232c-.612.021-7.294-.333-10.216-1.7-4.065-1.911-5.137-4.229-4.82-5.882a40.154 40.154 0 0 0 .508-10.424.031.031 0 0 1 .031.013l.823-26.272 42.228.011 2.438 23.221a6.634 6.634 0 0 1-.09 1.108l-.55 6.524a56.658 56.658 0 0 0 .218 9.1l.435 5.864z" style="fill:#72534d"/>
                <path data-name="Path 17384" d="M221.284 87.271c.1-.413.211-.848.328-1.3a8.257 8.257 0 0 0-.452 1.206 1.337 1.337 0 0 0 .124.089" style="fill:#2a2a2a"/>
                <path data-name="Path 17385" d="M220.651 86.661c-.033.1-.055.207-.088.312l.037-.373c.02.018.03.041.051.063" style="fill:#231e2c"/>
                <path data-name="Path 17386" d="M203.664 59.052c.011-.021.011-.03.021-.041-.342 0-.695.009-1.037.015.1.011.228.013.331.026.207 0 .446.007.684 0" style="fill:#231e2c"/>
                <path data-name="Path 17387" d="M225.863 68.725c-.381 2.4-.95 4.934-1.591 7.421-.907 3.552-1.926 7.009-2.655 9.828a7.4 7.4 0 0 0-.455 1.215 2.406 2.406 0 0 1-.51-.527c-.021-.022-.031-.041-.051-.062-1.218-1.668-2.463-5.473-3.818-5.681a7.8 7.8 0 0 1-2.428-.547 1.059 1.059 0 0 1-.547-.8c-.171-.988.609-2.414.951-3.062.866-1.625 2.1-3.223 1.968-5.111a4.269 4.269 0 0 0-2.592-3.888 3.06 3.06 0 0 0-1.473.047c-1.562.464-2.792 2.165-3.48 3.7q-.6 1.331-1.1 2.689l-3.782-8.011c-.337-3.562-.313-3.157-.637-6.884.011-.021.011-.031.021-.042-.342 0-.695.01-1.037.014l-25.467-.436a5.615 5.615 0 0 1 .078-2.28 36.137 36.137 0 0 0 .138-4.083l-.1-1.4c-1.2-1.648 1.627-2.557 1.77-3.726a1.939 1.939 0 0 0-.047-.322c-.105-.541-.142-1.475 1.977-1.762a.233.233 0 0 1 .083-.009v-.052c.031-.632-.2-1.362-.162-1.569.2-1.428 1.309-.166 2.509-.655 1.19-.509.728-.143 1.457-1.677s1.978-.528 2.868-.42c.911.1 1.4.509 1.764-.065.351-.544.684-.642 1.376-.446.712.179.692.136 1.827-.809s.791-.2 1.45.127c.679.31.048.892.931-.516s1.375-1.064 2.129-1.561 2.773.976 3.479 1.62.668.344 1.207-.26.225-.431 1.1-.677c.9-.234 1.434.436 2.152.916s.561-.084.946-.8.735-.588 1.747-.355.529.641 1.184 1.181c.665.559.741.343 1.167.266a12.529 12.529 0 0 0 1.5-.078c.614-.138.78.456 1.126 1.551.366 1.085.613 1.233.943 1.333a9.936 9.936 0 0 0 1.54.283c.89.138.644.559.9 1.746s.25.573.708.448a10.3 10.3 0 0 1 3.106.93 2.722 2.722 0 0 1 1.617 2c.255.885-.359 1.032-.214 2.391s2.119 1.714 2.28 2.661l-.1 1.137a22.5 22.5 0 0 1 2.575 7.58 26.9 26.9 0 0 1-.327 7.488" style="fill:#242424"/>
                <path data-name="Path 17388" d="M190.92 101.015s.378 1.392.131 7c.152 1.068 6.031-1.463 9.769-4.168a13.965 13.965 0 0 0 4.156-4.771s-2.229-1.189-2.36-1.574z" style="fill:#5f4441"/>
                <path data-name="Path 17389" d="M247.706 221.8c-.43-8.971 11.481-92.1 9.652-94.71s-35.7-14.646-35.7-14.646c-6.979-.307-25.153 19.271-25.153 19.271s-3.7-16.376-9.365-14.038c-2.162.893-20.334 11.007-20.308 11.532.069 1.435-3.2 43.854-2.359 53.882.343 4.1 0 21.748-.778 38.5z" style="fill:#f5e171"/>
                <path data-name="Path 17390" d="M187.725 115.744s-20.273 9.9-26.6 18.56-11.077 40.494-10 51.653c5.764 1.271 10.977.519 13.35-2.588.09-2.058 1.815-35.035 5.674-44.525s18.892-13.184 22.416-15.7-4.84-7.4-4.84-7.4" style="fill:#f5d006"/>
                <path data-name="Path 17391" d="M203.884 126.691c-5.536-2.22-7.656 18.964-7.656 18.964-.586-15.3 1.762-22.766 2.305-22.808s5.351 3.844 5.351 3.844" style="fill:#988831"/>
                <path data-name="Path 17392" d="M194.852 122.362c.617.332 2.446 2.484 1.451 18.66 0 0-1.687-18.443-6.031-16.711 0 0 3.964-2.283 4.58-1.949" style="fill:#988831"/>
                <path data-name="Path 17393" d="m191.051 107.024-4.341 6.876a135.067 135.067 0 0 0 1.632 15.294l6.674-6.735c-4.559-6.793-3.965-15.437-3.965-15.437" style="fill:#f5d006"/>
                <path data-name="Path 17394" d="m198.407 122.827 10.456 10.312s14.066-8.315 18.234-20.944l-4.866-8.028s-8.307 15.818-23.824 18.66" style="fill:#f5d006"/>
                <path data-name="Path 17395" d="M254.2 147.394c-3.926-2.441-11.794-1.925-12.959 6.516-.633 4.591-2 41.759-2 41.759l-43.019 16.862-1.731 9.772s59.268-.792 61.643-1.309c8.111-1.769 10.26-42.058 3.587-62.791-.714-2.233-1.953-8.591-5.521-10.809" style="fill:#72534d"/>
                <path data-name="Path 17396" d="M224.487 111.326s31.01 7.829 37.336 16.484 11.077 40.495 10 51.652c-13.395 3.458-30.319 2.207-32.692-.9-.09-2.056 2.7-35.1-1.156-44.591s-14.8-12.727-18.328-15.246 4.84-7.4 4.84-7.4" style="fill:#f5d006"/>
                <path data-name="Path 17397" d="M199.5 214.778s-16.56-14.58-38.3 2.09c0 0-3.9-.19-2.813 5.436h39.3z" style="fill:#72534d"/>
                <path data-name="Path 17398" d="M62.437 213.231s13.985-10.236 32.345 1.467c0 0 3.294-.133 2.375 3.816H63.969z" style="fill:#9a7069"/>
                <path data-name="Path 17399" d="M140.009 202.937c-.525 2.6-.86 3.41-1.386 6.013 1.561.431 2.018.971 3.728 1.727a36.732 36.732 0 0 1 4.726 2.473c1.547 1.019 7.667-2.729 9.229-3.236 1.317-.427 3.436-1.7 3.923-3.049.377-1.045-2.94-1.717-6.334-1.49a13.059 13.059 0 0 1-1.6.023c-1.206-.2-7.125-1.02-6.9-2.527.05-.341 6.575-.061 6.467-.325a4.371 4.371 0 0 0-4.02-2.546 38.045 38.045 0 0 0-5.272.223 9.543 9.543 0 0 0-2.026.54 7.757 7.757 0 0 0-.535 2.172" style="fill:#72534d"/>
                <path data-name="Path 17400" d="M94.288 172.256c.353 1.654.744 3.3 1.185 4.936.942 3.482 2.1 6.426 3.073 9.377a48.231 48.231 0 0 0 4.944 10.82c4.32 6.633 20.179 9.585 35.133 11.562.14.092 1.289.782 1.491-.266a27.98 27.98 0 0 0 .432-7.919c-.557-.138-2.288-.7-4.46-1.129-7.32-1.459-21.041-4.438-22.433-7.883-.746-1.852-2.356-9.906-3.987-19.31z" style="fill:#72534d"/>
                <path data-name="Path 17401" d="M207.073 216.584a1.487 1.487 0 0 0-1.4-1.559h-77.447a1.487 1.487 0 0 0-1.4 1.559v1.407a1.487 1.487 0 0 0 1.4 1.559h77.444a1.487 1.487 0 0 0 1.4-1.559z" style="fill:#988831"/>
                <path data-name="Path 17402" d="M209.528 162.139a1.6 1.6 0 0 0-1.56-1.621H125.86a1.539 1.539 0 0 0-1.49 1.583v.038l2.455 51.141a1.652 1.652 0 0 0 1.488 1.745h77.2a1.71 1.71 0 0 0 1.56-1.745z" style="fill:#333"/>
                <path data-name="Path 17403" d="M166.948 184.5a5.531 5.531 0 1 1-5.531 5.531 5.531 5.531 0 0 1 5.531-5.531" style="fill:#5d5c5c"/>
                <path data-name="Path 17404" d="M110.262 147.557c9.151 4.408 10.521 15.516 7.149 21.726a75.632 75.632 0 0 0-5.232 12.2s-15.972-2.89-19.248-2.576c.471-10.889 1.673-20.626 3.279-23.072 3.092-4.7 7.581-11.4 14.052-8.278" style="fill:#fff"/>
                <path data-name="Rectangle 13130" transform="translate(0 218.436)" style="fill:#fff" d="M0 0h377.558v12.651H0z"/>
            </g>
        </g>
    </g>
</svg>
