<svg xmlns="http://www.w3.org/2000/svg" width="386.751" height="252.556" viewBox="0 0 386.751 252.556">
    <g data-name="Group 20409">
        <g data-name="Group 20409">
            <g data-name="Group 20406">
                <g data-name="Group 11002">
                    <g data-name="Group 8042">
                        <g data-name="Group 7522">
                            <g data-name="Group 7494">
                                <g data-name="Group 7384">
                                    <path data-name="Path 3881" d="M298.256 255.571H20.56V42.79c0-4.97 3.392-9 7.577-9h262.492c4.185 0 7.577 4.029 7.577 9V255.6z" transform="translate(42.725 -33.79)" style="fill:#fff"/>
                                    <path data-name="Path 3882" d="M169.873 246.9H25.51V41.15h148.327" transform="translate(48.561 -25.113)" style="fill:#ebeaea"/>
                                    <path data-name="Path 3883" d="M73.64 41.15h142.1V246.9H74.351" transform="translate(114.85 -25.113)" style="fill:#fff"/>
                                </g>
                            </g>
                        </g>
                    </g>
                </g>
            </g>
        </g>
        <g data-name="Group 20410">
            <g data-name="Group 8808">
                <g data-name="Group 8804">
                    <path data-name="Path 4714" d="M16.869 0 0 63.2l126.622 34.049 16.868-63.192z" style="fill:#333" transform="rotate(-22 518.833 -439.055)"/>
                </g>
                <g data-name="Group 8805">
                    <path data-name="Path 4715" d="m7.741 49.151 91.451 24.594a10.886 10.886 0 0 1 13.362-7.692l7.5-28.087a10.935 10.935 0 0 1-7.742-13.366L20.861 0A10.888 10.888 0 0 1 7.5 7.7L0 35.78a10.94 10.94 0 0 1 7.741 13.371zm56.97-29.833a18.168 18.168 0 1 1-22.27 12.823 18.231 18.231 0 0 1 22.271-12.823z" transform="rotate(-22 543.203 -475.076)" style="fill:#f5d006"/>
                    <path data-name="Path 4716" d="M16.869 0 0 63.2l126.622 34.049 16.868-63.192zm106.656 91.9L5.344 60.117 19.965 5.35l118.181 31.785z" style="fill:#f5d006" transform="rotate(-22 518.833 -439.055)"/>
                    <path data-name="Path 4717" d="M2.6 15.195 0 17.384a14.034 14.034 0 0 0 6.152 4.763l-.781 2.929 2.553.689.764-2.871c3.823.649 6.918-.81 7.77-4l.015-.059c.837-3.134-.6-5.4-4.765-7.718l1.5-5.624a11.208 11.208 0 0 1 3.483 2.976l2.38-2.312a11.951 11.951 0 0 0-4.923-3.71l.471-1.758L12.065 0l-.455 1.7c-3.755-.664-6.819.8-7.656 3.938l-.017.062c-.884 3.31.69 5.428 4.679 7.694l-1.542 5.768A11.2 11.2 0 0 1 2.6 15.195zm8.191-.624c2.08 1.282 2.512 2.246 2.168 3.536l-.014.056C12.564 19.571 11.3 20.2 9.361 19.9zM7.464 6.393l.009-.029c.344-1.291 1.542-2 3.465-1.673L9.553 9.874C7.482 8.565 7.134 7.622 7.464 6.393z" transform="rotate(-22 579.963 -616.683)" style="fill:#dcebf8"/>
                </g>
                <g data-name="Group 8807">
                    <g data-name="Group 8806">
                        <path data-name="Path 4718" d="M16.693 8.467a11.242 11.242 0 0 0-3.483-2.976l-1.5 5.624c4.165 2.313 5.6 4.584 4.765 7.718l-.015.059c-.851 3.193-3.947 4.652-7.77 4l-.764 2.871-2.553-.689.781-2.929A14.034 14.034 0 0 1 0 17.384l2.6-2.189a11.2 11.2 0 0 0 4.478 3.967l1.542-5.771C4.628 11.126 3.054 9.007 3.937 5.7l.017-.058c.837-3.137 3.9-4.6 7.656-3.938L12.065 0l2.554.689-.469 1.756a11.951 11.951 0 0 1 4.923 3.71zm-7.14 1.41 1.385-5.186c-1.926-.331-3.121.385-3.465 1.673l-.009.029c-.33 1.229.018 2.172 2.089 3.484zm1.232 4.695L9.361 19.9c1.935.3 3.2-.332 3.579-1.737l.014-.059c.346-1.287-.087-2.251-2.17-3.533z" style="fill:#fff" transform="rotate(-22 579.963 -616.683)"/>
                    </g>
                </g>
            </g>
            <g data-name="Group 8813">
                <g data-name="Group 8809">
                    <path data-name="Path 4719" d="m0 0 .092 65.4 131.073.184-.092-65.4z" style="fill:#333" transform="rotate(-22 518.46 -490.071)"/>
                </g>
                <g data-name="Group 8810">
                    <path data-name="Path 4720" d="m10.979 50.866 94.664.134a10.874 10.874 0 0 1 10.907-10.886l-.041-29.066A10.95 10.95 0 0 1 105.571.133L10.907 0A10.875 10.875 0 0 1 0 10.884l.041 29.067a10.948 10.948 0 0 1 10.938 10.915zM58.25 7.333a18.166 18.166 0 1 1-18.179 18.141A18.246 18.246 0 0 1 58.25 7.333z" transform="rotate(-22 533.563 -512.513)" style="fill:#fff"/>
                    <path data-name="Path 4721" d="m0 0 .092 65.4 131.073.184-.092-65.4zm126.791 61.215L4.457 61.043l-.08-56.678 122.334.172z" style="fill:#fff" transform="rotate(-22 518.46 -490.071)"/>
                    <path data-name="Path 4722" d="M1.939 17.12 0 19.909a14.054 14.054 0 0 0 7.175 3.011v3.031h2.641v-2.969c3.86-.36 6.469-2.568 6.465-5.874v-.058c0-3.241-1.983-5.064-6.6-6.223L9.67 5.006a11.251 11.251 0 0 1 4.13 1.977l1.7-2.85a11.929 11.929 0 0 0-5.717-2.31V.003L7.142 0v1.758C3.346 2.086.766 4.3.771 7.538V7.6c0 3.426 2.074 5.067 6.511 6.225L7.29 19.8a11.2 11.2 0 0 1-5.351-2.68zm7.745-2.72c2.34.7 3.01 1.52 3.012 2.854v.059c0 1.457-1.061 2.394-3 2.605zM4.356 7.362v-.029C4.354 6 5.326 5 7.269 4.821l.008 5.365c-2.341-.732-2.919-1.551-2.921-2.824z" transform="rotate(-22 540.698 -647.76)" style="fill:#7ab4e2"/>
                </g>
                <g data-name="Group 8812">
                    <g data-name="Group 8811">
                        <path data-name="Path 4723" d="M13.8 6.983a11.271 11.271 0 0 0-4.13-1.977l.008 5.821c4.619 1.159 6.6 2.978 6.6 6.223v.061c0 3.306-2.607 5.513-6.465 5.874v2.969H7.172v-3.031A14.054 14.054 0 0 1 0 19.909l1.939-2.789A11.147 11.147 0 0 0 7.29 19.8l-.008-5.971C2.845 12.666.776 11.025.771 7.6v-.062c0-3.241 2.575-5.452 6.374-5.78L7.142 0h2.642v1.82A11.929 11.929 0 0 1 15.5 4.134zm-6.527 3.2-.004-5.362C5.326 5 4.354 6 4.356 7.333v.029c.002 1.273.58 2.092 2.921 2.824zM9.684 14.4l.008 5.517c1.943-.211 3.006-1.148 3-2.6v-.061c.002-1.332-.668-2.156-3.008-2.856z" style="fill:#fff" transform="rotate(-22 540.698 -647.76)"/>
                    </g>
                </g>
            </g>
            <g data-name="Group 8818">
                <g data-name="Group 8814">
                    <path data-name="Path 4724" d="m0 33.7 17.046 63.24 126.53-33.7L126.529 0z" style="fill:#333" transform="rotate(-22 424.212 -497.661)"/>
                </g>
                <g data-name="Group 8815">
                    <path data-name="Path 4725" d="m20.961 73.525 91.382-24.339a10.869 10.869 0 0 1 7.7-13.347L112.47 7.73A10.955 10.955 0 0 1 99.083 0L7.7 24.337A10.878 10.878 0 0 1 0 37.687l7.577 28.105a10.952 10.952 0 0 1 13.384 7.733zM55.286 19.2a18.194 18.194 0 1 1-12.837 22.241A18.256 18.256 0 0 1 55.286 19.2z" transform="rotate(-22 448.446 -533.778)" style="fill:#f5d006"/>
                    <path data-name="Path 4726" d="m0 33.7 17.046 63.24 126.53-33.7L126.529 0zm138.22 26.447L20.128 91.6 5.356 36.792 123.448 5.338z" style="fill:#f5d006" transform="rotate(-22 424.212 -497.661)"/>
                    <path data-name="Path 4727" d="m3.81 18.588-1.15 3.2a14.061 14.061 0 0 0 7.7 1.059l.79 2.929 2.552-.678-.775-2.873c3.632-1.344 5.577-4.155 4.714-7.35l-.015-.059c-.845-3.137-3.227-4.39-7.983-4.318L8.128 4.867a11.279 11.279 0 0 1 4.5.844l.9-3.193a11.91 11.91 0 0 0-6.113-.758L6.94 0 4.389.679l.46 1.7c-3.579 1.3-5.5 4.1-4.65 7.239l.015.059c.893 3.315 3.315 4.367 7.9 4.341l1.558 5.772a11.173 11.173 0 0 1-5.862-1.202zm6.766-4.631c2.442.074 3.3.693 3.646 1.981l.018.062c.377 1.409-.4 2.59-2.226 3.3zM3.611 8.523 3.6 8.494c-.345-1.294.333-2.509 2.164-3.182L7.16 10.5c-2.447-.1-3.216-.747-3.549-1.977z" transform="rotate(-22 483.969 -677.661)" style="fill:#3b93d0"/>
                </g>
                <g data-name="Group 8817">
                    <g data-name="Group 8816">
                        <path data-name="Path 4728" d="M12.628 5.711a11.256 11.256 0 0 0-4.5-.844L9.646 10.5c4.756-.075 7.138 1.178 7.983 4.315l.015.059c.863 3.2-1.085 6.006-4.714 7.35l.775 2.873-2.552.678-.79-2.929a14.036 14.036 0 0 1-7.7-1.062l1.15-3.2A11.206 11.206 0 0 0 9.67 19.79l-1.561-5.775c-4.581.029-7-1.023-7.9-4.338L.2 9.619C-.647 6.482 1.269 3.678 4.848 2.38l-.46-1.7L6.94 0l.474 1.76a11.91 11.91 0 0 1 6.115.758zM7.16 10.5l-1.4-5.189C3.933 5.985 3.255 7.2 3.6 8.494l.009.029C3.944 9.753 4.713 10.4 7.16 10.5zm3.416 3.459 1.438 5.336c1.822-.706 2.6-1.887 2.226-3.3l-.018-.059c-.348-1.286-1.204-1.905-3.646-1.979z" style="fill:#fff" transform="rotate(-22 483.969 -677.661)"/>
                    </g>
                </g>
            </g>
            <g data-name="Group 8823">
                <g data-name="Group 8819">
                    <path data-name="Path 4729" d="m0 65.313 32.832 56.744L146.2 56.744 113.368 0z" style="fill:#333" transform="rotate(-17.05 384.258 -643.75)"/>
                </g>
                <g data-name="Group 8820">
                    <path data-name="Path 4730" d="m29.509 91.306 81.877-47.171a10.892 10.892 0 0 1 3.976-14.9L100.77 4.016A10.94 10.94 0 0 1 85.85 0L3.973 47.171A10.891 10.891 0 0 1 0 62.072L14.592 87.29a10.937 10.937 0 0 1 14.917 4.016zM48.56 29.89a18.211 18.211 0 1 1-6.625 24.834A18.232 18.232 0 0 1 48.56 29.89z" transform="rotate(-17.05 428.001 -702.97)" style="fill:#fff"/>
                    <path data-name="Path 4731" d="m0 65.313 32.832 56.744L146.2 56.744 113.368 0zM140.233 55.14 34.424 116.1 5.968 66.918 111.777 5.96z" style="fill:#fff" transform="rotate(-17.05 384.258 -643.75)"/>
                    <path data-name="Path 4732" d="m6.552 18.784-.283 3.388a13.985 13.985 0 0 0 7.711-.972l1.52 2.634 2.287-1.318L16.3 19.94c3.156-2.239 4.3-5.462 2.643-8.328l-.029-.053c-1.63-2.814-4.251-3.409-8.823-2.109L7.164 4.4a11.253 11.253 0 0 1 4.565-.348L11.768.73a11.867 11.867 0 0 0-6.1.847L4.758 0 2.472 1.315l.884 1.527C.238 5.022-.885 8.23.745 11.044l.029.053C2.5 14.072 5.1 14.462 9.518 13.25l3 5.182a11.138 11.138 0 0 1-5.966.352zm5.33-6.227c2.376-.562 3.363-.186 4.033.972l.029.053c.731 1.263.285 2.607-1.29 3.761zM3.751 9.1l-.015-.026C3.067 7.917 3.4 6.564 5 5.439l2.693 4.654c-2.393.536-3.301.113-3.942-.993z" transform="rotate(-17.05 516.42 -879.691)" style="fill:#257abe"/>
                </g>
                <g data-name="Group 8822">
                    <g data-name="Group 8821">
                        <path data-name="Path 4733" d="M11.726 4.051a11.243 11.243 0 0 0-4.562.349l2.923 5.05c4.572-1.3 7.193-.7 8.823 2.109l.029.053c1.659 2.867.509 6.089-2.643 8.328l1.492 2.576-2.288 1.318-1.52-2.634a13.985 13.985 0 0 1-7.711.967l.283-3.388a11.138 11.138 0 0 0 5.965-.352l-3-5.182C5.1 14.462 2.493 14.072.774 11.1l-.029-.053C-.885 8.23.238 5.022 3.356 2.842l-.884-1.527L4.758 0l.913 1.577a11.867 11.867 0 0 1 6.1-.847zm-4.035 6.042L5 5.439C3.4 6.564 3.067 7.917 3.737 9.074l.015.026c.64 1.106 1.548 1.529 3.939.993zm4.19 2.463 2.77 4.786c1.578-1.152 2.024-2.5 1.293-3.761l-.029-.053c-.67-1.157-1.658-1.534-4.034-.972z" style="fill:#fff" transform="rotate(-17.05 516.42 -879.691)"/>
                    </g>
                </g>
            </g>
        </g>
        <g data-name="Group 20411">
            <g data-name="Group 20400">
                <g data-name="Group 20365">
                    <g data-name="Group 20356">
                        <path data-name="Path 17242" d="m3807.383 9341.726 34.251-13.837c.01-.078.015-.157.024-.236a.777.777 0 0 0-.006-.125l35.078 15.821c13.605 2.646 15.094 16.02 15.094 16.02l1.912 21.088 1.393 24.455-18.774 2.482-1.632-16.4-1.091 49.939H3808.9l1.024-7.946-1.434-45.128" transform="translate(-3767.733 -9221.179)" style="fill:#c3a713"/>
                        <path data-name="Path 17243" d="m4043.088 9538.3-.036-.142c.026-.017.037.042.036.142z" transform="translate(-3932.176 -9367.898)" style="fill:#040505;opacity:.1"/>
                        <g data-name="Group 20355">
                            <path data-name="Path 17244" d="M3847.866 9198.5s-7.354-12.272-12.446.213 5.965 15.571 5.965 15.571 7.006.025 7.442-5.523a31.5 31.5 0 0 0-.961-10.261z" transform="translate(-3786.361 -9126.512)" style="fill:#1a1a1a"/>
                            <path data-name="Path 17245" d="m3879.918 9261.559-3.192 27.916s14.2 9.845 27.227 4.571l-3.836-31.577z" transform="translate(-3816.119 -9174.27)" style="fill:#9a7069"/>
                            <path data-name="Path 17246" d="M3917.581 9296.25c1.111.415 6.138 1.519 6.766 1.349l-.841-7.43-15-4.978s-1.678 7.036 9.075 11.059z" transform="translate(-3838.229 -9190.761)" style="fill:#6e453e"/>
                            <path data-name="Path 17247" d="M3873.478 9181.989c-6.767-5.329-9.738-18.013-9.2-26.052 1.643-23.2 35.233-24.564 42.852-7.069 2.529 5.808 3.542 15.484 1.886 24.2-1.824 9.591-2.455 16.593-5.789 19.114-2.608 1.975-7.054 1.035-14.628-2.192z" transform="translate(-3807.388 -9087.343)" style="fill:#9a7069"/>
                            <path data-name="Path 17248" d="M3867.594 9170.511c-.972 1.185.192 4.1-1.163 4.816-1.823-2.947-4.879-6.165-5.911-9.711a49.777 49.777 0 0 1-1.968-8.074c-.264-2.326.372-7.08.672-9.1 1.423-9.354 10.286-15.973 20.632-16.388 0 0 10.185-.739 15.273 2.687 1.317.887 6.487 3.991 8.545 9.3 1.631 4.21.672 6.241-.192 7.244-3.984 3.132-19.873.488-19.873.488-.768 1.665-5.352 2.3-6.072 10.669l-1.716.5c-.515-.049-.768-.637-.987-1.5a5.35 5.35 0 0 0-3.194-3.571 2.8 2.8 0 0 0-1.374-.069c-1.461.612-2.439 1.5-2.478 3.121-.155 1.8.978 3.874 1.762 5.434a2.3 2.3 0 0 1 .313 1.853z" transform="translate(-3803.394 -9083.856)" style="fill:#1a1a1a"/>
                        </g>
                    </g>
                    <g data-name="Group 20357">
                        <path data-name="Path 17249" d="M3748.037 9484.049c3.476-2.162 10.441-1.7 11.473 5.77.561 4.064-2.457 43.346-2.457 43.346l42.31 8.553 1.533 8.651s-52.47-.7-54.574-1.16c-7.181-1.565-6.736-39.164-.828-57.521.635-1.976-.616-5.673 2.543-7.639z" transform="translate(-3721.412 -9329.61)" style="fill:#9a7069"/>
                    </g>
                    <path data-name="Path 17258" d="m3736.418 9435.075 21.035 3.179 3.75-62.262-3.365-1.8c-9.249 2.44-16 10.351-16.9 12.8h-.022l-4.5 48.081" transform="translate(-3718.216 -9253.45)" style="fill:#c3a713"/>
                </g>
            </g>
            <g data-name="Group 20401">
                <g data-name="Group 20381">
                    <path data-name="Path 17280" d="m3000.136 560.684 2.068 9.849 16.281 1.1s-2.253-20.176-.437-20.427c1.936-.266 8.049-3.237 9.332-4.869 5.079-6.465 2.34-10.149 3.316-14.887 2.244-10.922-.441-13.9-2.015-15.98-1.9-2.513-1.4-3.536-4.813-5.949-2.194-1.551-7.679-3.537-10.443-3.537-3.147 0-8.873-.027-12.341 1.925-5.468 3.079-7.27 10.337-7.758 11.87-.7 2.189-.2 5.633.1 8.509.49 4.6 6.708 10.52 8.246 16.663 1.182 4.712-1.082 10.023-1.539 15.731" transform="translate(-2878.976 -414.531)" style="fill:#72534d"/>
                    <g data-name="Group 20380">
                        <path data-name="Path 17281" d="M3038.2 512.74c1.077 3.271-8.029 4.229-8.029 6.557a5.227 5.227 0 0 0-2.947-3.023s-8.03 6.6-14.711 6.187c-5.981-.366-3.721 9.9-6.26 10.566s-1.887-3.963-2.2-4.191-8.667-2.071-1.938 8.22c0 0-1.6 4.016-2.433 3.2-7.012-6.926-8.5-9.929-9.082-14.622-.6-4.888-1.2-9.1 1.34-13.225 2.756-4.475 8.36-6.743 13.065-8.623l.748-.3a17.217 17.217 0 0 1 6.391-1.234h2.473c4.654 0 16.461 1.8 19.7 5.372a30.724 30.724 0 0 1 3.883 5.116z" transform="translate(-2878.674 -414.141)" style="fill:#231e2c"/>
                    </g>
                    <path data-name="Path 17288" d="M3043.078 554.521c3.66 3.953 3.538 12.321 2.888 17.648.044.13-13.621 3.366-13.5 8.219.116 4.578 7.613 59.554 7.613 59.554s-8.077-1.376-11.1 0c-12.508 5.7-45.612 3.727-45.626 1.456-.113-18.676.539-63.6-.511-66.372-.71-1.879.31-8.378.511-8.912l14.947-6.794s5.629 8.16 15.093 6.96c3.314-.42 2.863-5.309 2.863-5.309a22.362 22.362 0 0 1 8.721-4.417 65.582 65.582 0 0 1 18.101-2.033z" transform="translate(-2877.893 -419.596)" style="fill:#fff"/>
                </g>
            </g>
            <g data-name="Group 20402">
                <g data-name="Group 20389">
                    <g data-name="Group 20388">
                        <path data-name="Path 17295" d="m365.157 8579.439-14.017 8.513-10.223 11.994c-2.414 1.175-7.593-11.768-7.6-16.1.033-2.063.119-7.453.308-9.545 0 0 .206-3.821.265-7.5l-.265-2.232c-.612.021-7.294-.333-10.216-1.7-4.065-1.911-5.137-4.229-4.82-5.882a40.139 40.139 0 0 0 .508-10.424.034.034 0 0 1 .031.013l.823-26.271 42.228.011 2.429 23.221a6.627 6.627 0 0 1-.09 1.108l-.55 6.523a56.675 56.675 0 0 0 .218 9.1l.435 5.864z" transform="translate(-142.713 -8463.552)" style="fill:#72534d"/>
                        <path data-name="Path 17296" d="M451.458 8607.205c.1-.413.211-.848.328-1.295a8.33 8.33 0 0 0-.452 1.206 1.405 1.405 0 0 0 .124.089" transform="translate(-230.174 -8519.934)" style="fill:#2a2a2a"/>
                        <path data-name="Path 17297" d="M449.673 8607.795c-.033.105-.055.207-.088.311l.037-.373c.02.02.03.041.051.063" transform="translate(-229.022 -8521.133)" style="fill:#231e2c"/>
                        <path data-name="Path 17298" d="M398.121 8526.957c.011-.021.011-.03.021-.041-.342 0-.695.009-1.037.015.1.012.228.014.331.026.207 0 .446.007.684 0" transform="translate(-194.457 -8467.905)" style="fill:#231e2c"/>
                        <path data-name="Path 17299" d="M370.838 8494.68c-.381 2.4-.95 4.934-1.591 7.421-.907 3.552-1.926 7.009-2.655 9.828a7.368 7.368 0 0 0-.455 1.215 2.4 2.4 0 0 1-.51-.527c-.021-.021-.031-.04-.051-.062-1.218-1.668-2.463-5.473-3.818-5.681a7.807 7.807 0 0 1-2.428-.547 1.06 1.06 0 0 1-.547-.8c-.171-.987.609-2.414.951-3.062.866-1.625 2.1-3.223 1.968-5.111a4.27 4.27 0 0 0-2.592-3.888 3.053 3.053 0 0 0-1.473.047c-1.562.464-2.792 2.165-3.48 3.7q-.6 1.329-1.1 2.688l-3.781-8.012c-.337-3.562-.313-3.157-.637-6.884.011-.021.011-.031.021-.042-.342 0-.695.01-1.037.014l-25.467-.436a5.624 5.624 0 0 1 .078-2.28 36.3 36.3 0 0 0 .138-4.083l-.1-1.4c-1.2-1.647 1.627-2.557 1.77-3.726a1.92 1.92 0 0 0-.047-.322c-.105-.541-.142-1.475 1.977-1.762a.219.219 0 0 1 .083-.009v-.052c.031-.633-.2-1.362-.162-1.569.2-1.428 1.309-.166 2.509-.655 1.19-.509.728-.143 1.457-1.677s1.978-.528 2.868-.42c.911.1 1.4.509 1.764-.065.351-.544.684-.642 1.376-.445.712.179.692.136 1.827-.81s.791-.2 1.45.127c.679.311.048.893.931-.516s1.375-1.064 2.129-1.562 2.773.977 3.479 1.62.668.344 1.207-.26.225-.431 1.1-.677c.9-.234 1.434.436 2.152.916s.561-.084.946-.795.735-.589 1.747-.355.529.641 1.184 1.181c.665.56.741.344 1.167.267a12.614 12.614 0 0 0 1.5-.078c.614-.138.78.456 1.126 1.551.366 1.085.613 1.233.943 1.333a9.936 9.936 0 0 0 1.54.283c.89.138.644.559.9 1.746s.25.573.708.448a10.3 10.3 0 0 1 3.106.93 2.721 2.721 0 0 1 1.617 2c.255.885-.359 1.032-.214 2.391s2.119 1.714 2.28 2.661l-.1 1.137a22.51 22.51 0 0 1 2.575 7.58 26.887 26.887 0 0 1-.327 7.488" transform="translate(-144.975 -8425.955)" style="fill:#242424"/>
                        <path data-name="Path 17300" d="M362.752 8643.193s.378 1.392.131 7c.152 1.068 6.031-1.463 9.769-4.168a13.953 13.953 0 0 0 4.156-4.771s-2.229-1.188-2.36-1.573z" transform="translate(-171.832 -8542.178)" style="fill:#5f4441"/>
                    </g>
                    <path data-name="Path 17301" d="M367.017 8795.374c-.43-8.971 11.481-92.1 9.652-94.71s-35.7-14.646-35.7-14.646c-6.979-.307-25.153 19.271-25.153 19.271s-3.7-16.376-9.365-14.038c-2.162.893-20.334 11.007-20.308 11.532.069 1.435-3.2 43.854-2.359 53.882.343 4.1 0 21.748-.778 38.5z" transform="translate(-119.311 -8573.569)" style="fill:#f5e171"/>
                    <path data-name="Path 17302" d="M282.486 8694.883s-20.273 9.905-26.6 18.56-11.077 40.494-10 51.653c5.764 1.271 10.977.52 13.35-2.588.09-2.058 1.815-35.035 5.674-44.525s18.892-13.184 22.416-15.7-4.84-7.4-4.84-7.4z" transform="translate(-94.761 -8579.139)" style="fill:#f5d006"/>
                    <path data-name="Path 17303" d="M385.773 8719.118c-5.536-2.22-7.656 18.964-7.656 18.964-.586-15.3 1.762-22.766 2.305-22.808s5.351 3.844 5.351 3.844z" transform="translate(-181.889 -8592.427)" style="fill:#988831"/>
                    <path data-name="Path 17304" d="M365.432 8713.744c.617.332 2.446 2.484 1.451 18.66 0 0-1.687-18.443-6.031-16.711 0 0 3.964-2.283 4.58-1.949z" transform="translate(-170.58 -8591.382)" style="fill:#988831"/>
                    <path data-name="Path 17305" d="m354.76 8668.67-4.341 6.878a135.266 135.266 0 0 0 1.632 15.294l6.674-6.735c-4.559-6.794-3.965-15.437-3.965-15.437z" transform="translate(-163.709 -8561.646)" style="fill:#f5d006"/>
                    <path data-name="Path 17306" d="m384.683 8678.961 10.456 10.312s14.066-8.314 18.234-20.943l-4.866-8.028s-8.307 15.817-23.824 18.659z" transform="translate(-186.276 -8556.134)" style="fill:#f5d006"/>
                </g>
                <g data-name="Group 20390">
                    <path data-name="Path 17307" d="M432.913 8785.934c-3.926-2.441-11.794-1.925-12.959 6.516-.633 4.592-2 41.76-2 41.76l-43.019 16.861-1.731 9.772s59.268-.792 61.643-1.31c8.111-1.769 10.26-42.058 3.587-62.791-.714-2.232-1.953-8.591-5.521-10.808z" transform="translate(-178.718 -8638.54)" style="fill:#72534d"/>
                </g>
                <path data-name="Path 17308" d="M450.066 8681.822s31.01 7.829 37.336 16.484 11.077 40.494 10 51.651c-13.395 3.458-30.319 2.207-32.692-.9-.09-2.057 2.7-35.1-1.156-44.592s-14.8-12.727-18.328-15.245 4.84-7.398 4.84-7.398z" transform="translate(-225.579 -8570.497)" style="fill:#f5d006"/>
                <path data-name="Path 17310" d="M303.649 8974.389s-16.56-14.58-38.3 2.09c0 0-3.9-.189-2.813 5.437h39.3z" transform="translate(-104.148 -8759.611)" style="fill:#72534d"/>
            </g>
            <path data-name="Path 17318" d="M262.345 8972.631s13.985-10.236 32.345 1.467c0 0 3.294-.133 2.375 3.816h-33.188z" transform="translate(-199.908 -8759.4)" style="fill:#9a7069"/>
            <g data-name="Group 20403">
                <g data-name="Group 20397">
                    <g data-name="Group 20395">
                        <g data-name="Group 20394">
                            <path data-name="Path 17314" d="M4.724 1.412C2.738 3.175 1.986 3.617 0 5.379.988 6.662 1.027 7.368 1.938 9a36.825 36.825 0 0 1 2.286 4.817c.622 1.744 7.762 2.433 9.314 2.968 1.308.451 3.768.707 4.966-.074.93-.608-1.314-3.14-4.16-5a13.063 13.063 0 0 1-1.288-.941c-.842-.885-5.074-5.1-3.991-6.17.245-.242 5.286 3.906 5.359 3.631a4.371 4.371 0 0 0-1.681-4.451A38.124 38.124 0 0 0 8.4.787 9.563 9.563 0 0 0 6.458 0c-.5.244-.608.408-1.734 1.412" style="fill:#72534d" transform="rotate(-37 373.4 -99.969)"/>
                        </g>
                    </g>
                    <g data-name="Group 20396">
                        <path data-name="Path 17315" d="M7.79 0a96.128 96.128 0 0 0-2.023 4.654C4.425 8 3.576 11.045 2.58 13.988A48.207 48.207 0 0 0 .019 25.6c-.541 7.894 10.344 19.791 21.094 30.364.056.157.558 1.4 1.35.684a27.937 27.937 0 0 0 5.108-6.062c-.361-.445-1.408-1.932-2.882-3.584-4.966-5.568-14.128-16.2-13.167-19.787.518-1.928 4.078-9.326 8.432-17.815z" style="fill:#72534d" transform="rotate(-37 308.357 -43.123)"/>
                    </g>
                </g>
            </g>
            <g data-name="Group 20404" transform="translate(124.368 160.518)">
                <g data-name="Group 19915">
                    <path data-name="Path 17090" d="M796.658 761.532a1.487 1.487 0 0 0-1.4-1.559h-77.447a1.487 1.487 0 0 0-1.4 1.559v1.407a1.487 1.487 0 0 0 1.4 1.559h77.444a1.487 1.487 0 0 0 1.4-1.559z" transform="translate(-713.953 -705.466)" style="fill:#988831"/>
                    <path data-name="Path 17091" d="M791.568 539.58a1.6 1.6 0 0 0-1.56-1.621H707.9a1.537 1.537 0 0 0-1.488 1.621l2.455 51.141a1.652 1.652 0 0 0 1.488 1.745h77.2a1.71 1.71 0 0 0 1.56-1.745z" transform="translate(-706.408 -537.959)" style="fill:#333"/>
                </g>
                <circle data-name="Ellipse 1638" cx="5.531" cy="5.531" r="5.531" transform="translate(37.049 23.984)" style="fill:#5d5c5c"/>
            </g>
            <path data-name="Path 17317" d="M24.4 1.76c7.813 6.491 6.455 17.6 1.681 22.81a75.642 75.642 0 0 0-8.028 10.572S3.254 28.474 0 27.986C3.091 17.534 6.613 8.377 8.763 6.393 12.9 2.58 18.876-2.832 24.4 1.76z" transform="rotate(-14 661.04 -274.987)" style="fill:#fff"/>
        </g>
        <path data-name="Rectangle 13109" transform="translate(0 218.436)" style="fill:#fff" d="M0 0h377.558v12.651H0z"/>
    </g>
</svg>
