<svg xmlns="http://www.w3.org/2000/svg" width="357.759" height="271.833" viewBox="0 0 357.759 271.833">
    <defs>
        <clipPath id="kjb5bz95ca">
            <path data-name="Rectangle 12550" style="fill:#f5d006" d="M0 0h59.434v7.439H0z"/>
        </clipPath>
        <clipPath id="m4o52peqib">
            <path data-name="Rectangle 12559" style="fill:#f5d006" d="M0 0h39.712v35.513H0z"/>
        </clipPath>
        <clipPath id="g6ghoxpwmc">
            <path data-name="Rectangle 12560" style="fill:#f5d006" d="M0 0h39.308v32.712H0z"/>
        </clipPath>
        <clipPath id="b6q5lpusld">
            <path data-name="Rectangle 12561" style="fill:#f5d006" d="M0 0h50.642v45.323H0z"/>
        </clipPath>
        <clipPath id="wipcmfpg7e">
            <path data-name="Rectangle 12562" style="fill:#f5d006" d="M0 0h49.795v41.439H0z"/>
        </clipPath>
    </defs>
    <path data-name="Path 16112" d="M176.558 259.352H24.349a9.914 9.914 0 0 1-9.886-9.886V10.846A9.914 9.914 0 0 1 24.349.96h152.209a9.914 9.914 0 0 1 9.886 9.886v238.62a9.914 9.914 0 0 1-9.886 9.886" transform="translate(40.098 8.452)" style="fill:#333"/>
    <path data-name="Path 16113" d="M178.535 267.834H25.486A12.088 12.088 0 0 1 13.5 255.671V12.16A12.086 12.086 0 0 1 25.486 0h153.05a12.084 12.084 0 0 1 11.981 12.16v243.511a12.086 12.086 0 0 1-11.981 12.162M25.486 4.142a7.969 7.969 0 0 0-7.9 8.017v243.512a7.969 7.969 0 0 0 7.9 8.02h153.05a7.969 7.969 0 0 0 7.9-8.02V12.16a7.968 7.968 0 0 0-7.9-8.017z" transform="translate(38.055 2)" style="stroke:#fff;stroke-width:4px;fill:#fff"/>
    <path data-name="Path 16114" d="M157.313 211.27H29.447a9.675 9.675 0 0 1-9.886-9.389V18.866a9.675 9.675 0 0 1 9.886-9.389h127.866a9.675 9.675 0 0 1 9.886 9.389v183.015a9.675 9.675 0 0 1-9.886 9.389" transform="translate(45.779 21.632)" style="fill:#fff"/>
    <path data-name="Path 16115" d="M158.21 224.545H30.344a11.606 11.606 0 0 1-11.59-11.592V20.26a11.605 11.605 0 0 1 11.59-11.59H158.21a11.606 11.606 0 0 1 11.59 11.59v192.693a11.607 11.607 0 0 1-11.594 11.592M30.344 12.08a8.187 8.187 0 0 0-8.18 8.18v192.693a8.189 8.189 0 0 0 8.18 8.182H158.21a8.193 8.193 0 0 0 8.184-8.182V20.26a8.191 8.191 0 0 0-8.184-8.18z" transform="translate(44.879 17.042)" style="fill:none"/>
    <path data-name="Path 16116" d="M70.617 121.051a9.531 9.531 0 1 1-9.531-9.531 9.53 9.53 0 0 1 9.531 9.531" transform="translate(77.272 126.345)" style="fill:#fff"/>
    <path data-name="Path 16117" d="M78.236 9.739H48.657a2.866 2.866 0 1 1 0-5.732h29.58a2.866 2.866 0 0 1 0 5.732" transform="translate(79.003 14.847)" style="fill:#fff"/>
    <g data-name="Group 18476" style="opacity:.28">
        <g data-name="Group 18475">
            <g data-name="Group 18474" style="clip-path:url(#kjb5bz95ca)" transform="translate(96.671 150.465)">
                <path data-name="Path 16118" d="M90.1 75.117h-52a3.72 3.72 0 1 1 0-7.44h52a3.72 3.72 0 0 1 0 7.44" transform="translate(-34.381 -67.677)" style="fill:#f5d006"/>
            </g>
        </g>
    </g>
    <g data-name="Group 18479" style="opacity:.28">
        <g data-name="Group 18478">
            <g data-name="Group 18477" style="clip-path:url(#kjb5bz95ca)" transform="translate(96.671 164.162)">
                <path data-name="Path 16119" d="M90.1 81.6h-52a3.72 3.72 0 1 1 0-7.44h52a3.72 3.72 0 0 1 0 7.44" transform="translate(-34.381 -74.156)" style="fill:#f5d006"/>
            </g>
        </g>
    </g>
    <g data-name="Group 18482" style="opacity:.28">
        <g data-name="Group 18481">
            <g data-name="Group 18480" style="clip-path:url(#kjb5bz95ca)" transform="translate(96.671 177.859)">
                <path data-name="Path 16120" d="M90.1 88.074h-52a3.72 3.72 0 1 1 0-7.44h52a3.72 3.72 0 0 1 0 7.44" transform="translate(-34.381 -80.635)" style="fill:#f5d006"/>
            </g>
        </g>
    </g>
    <path data-name="Path 16121" d="M227.735 82.516H80.924a1.76 1.76 0 0 1-1.755-1.757V41.023a1.759 1.759 0 0 1 1.755-1.755h146.811a1.76 1.76 0 0 1 1.757 1.755v39.736a1.762 1.762 0 0 1-1.757 1.757" transform="translate(112.193 51.134)" style="fill:#333"/>
    <path data-name="Path 16122" d="M228.748 85.45H81.937a3.68 3.68 0 0 1-3.677-3.677V42.036a3.68 3.68 0 0 1 3.677-3.677h146.811a3.682 3.682 0 0 1 3.679 3.677v39.738a3.682 3.682 0 0 1-3.679 3.677M82.1 81.607h146.481V42.2H82.1z" transform="translate(111.18 50.122)" style="fill:#fff"/>
    <path data-name="Path 16122 - Outline" d="M228.72 86.4H81.909a4.654 4.654 0 0 1-4.649-4.649V42.008a4.654 4.654 0 0 1 4.649-4.649H228.72a4.655 4.655 0 0 1 4.651 4.649v39.738a4.655 4.655 0 0 1-4.651 4.654zM81.909 39.3a2.707 2.707 0 0 0-2.7 2.7v39.746a2.707 2.707 0 0 0 2.7 2.7H228.72a2.708 2.708 0 0 0 2.706-2.7V42.008a2.708 2.708 0 0 0-2.706-2.7zm147.617 43.252H81.1V41.2h148.426zM83.049 80.607h144.532V43.148H83.049z" transform="translate(111.208 50.149)" style="fill:#fff"/>
    <path data-name="Path 16122 - Outline" d="M228.734 85.923H81.923a4.168 4.168 0 0 1-4.163-4.163V42.022a4.168 4.168 0 0 1 4.163-4.163h146.811a4.169 4.169 0 0 1 4.165 4.163V81.76a4.169 4.169 0 0 1-4.165 4.163zM81.923 38.831a3.194 3.194 0 0 0-3.19 3.19V81.76a3.194 3.194 0 0 0 3.19 3.19h146.811a3.2 3.2 0 0 0 3.192-3.19V42.022a3.2 3.2 0 0 0-3.192-3.19zm147.13 43.248H81.6V41.7h147.45zm-146.477-.972h145.5V42.675h-145.5z" transform="translate(111.194 50.135)" style="fill:#fff"/>
    <path data-name="Path 16123" d="M103.307 57.391A15.191 15.191 0 1 1 88.117 42.2a15.192 15.192 0 0 1 15.19 15.19" transform="translate(105.235 54.402)" style="fill:#333"/>
    <path data-name="Path 16124" d="M89.229 75.809a17.3 17.3 0 1 1 17.307-17.3 17.324 17.324 0 0 1-17.307 17.3m0-30.381a13.076 13.076 0 1 0 13.078 13.078 13.091 13.091 0 0 0-13.078-13.078" transform="translate(104.121 53.287)" style="fill:#fff"/>
    <path data-name="Path 16125" d="M83.634 65.989h-.125a2.114 2.114 0 0 1-1.611-.9l-5.856-8.427a2.115 2.115 0 1 1 3.474-2.412l4.319 6.216 15.852-17.949a2.114 2.114 0 0 1 3.167 2.8L85.218 65.274a2.107 2.107 0 0 1-1.584.715" transform="translate(108.288 53.962)" style="fill:#f5d006"/>
    <path data-name="Rectangle 12553" transform="translate(222.068 105.369)" style="fill:#f5d006" d="M0 0h72.47v4.228H0z"/>
    <path data-name="Rectangle 12554" transform="translate(222.071 115.883)" style="fill:#f5d006" d="M0 0h46.373v4.228H0z"/>
    <path data-name="Rectangle 12555" transform="translate(258.189 190.763)" style="fill:#988831" d="M0 0h60.984v77.337H0z"/>
    <path data-name="Rectangle 12555 - Outline" d="M-.5-.5h61.956v78.309H-.5zm60.984.972H.472v76.365h60.012z" transform="translate(258.203 190.776)" style="fill:#fff"/>
    <path data-name="Path 16126" d="M172.948 167.514h-60.983a2.251 2.251 0 0 1-2.252-2.252V87.924a2.251 2.251 0 0 1 2.252-2.252h60.984a2.251 2.251 0 0 1 2.252 2.252v77.339a2.251 2.251 0 0 1-2.252 2.252m-58.73-4.505H170.7V90.177h-56.482z" transform="translate(146.225 102.837)" style="fill:#fff"/>
    <path data-name="Path 16126 - Outline" d="M172.921 168.459h-60.984a3.228 3.228 0 0 1-3.224-3.224V87.9a3.228 3.228 0 0 1 3.224-3.224h60.984a3.228 3.228 0 0 1 3.224 3.224v77.339a3.228 3.228 0 0 1-3.224 3.22zm-60.984-81.842a1.281 1.281 0 0 0-1.279 1.279v77.339a1.281 1.281 0 0 0 1.279 1.279h60.984a1.281 1.281 0 0 0 1.279-1.279V87.9a1.281 1.281 0 0 0-1.279-1.279zm59.7 77.337h-58.419V89.177h58.423zm-56.478-1.945H169.7V91.122h-54.537z" transform="translate(146.252 102.865)" style="fill:#fff"/>
    <path data-name="Path 16126 - Outline" d="M172.935 167.987h-60.984a2.741 2.741 0 0 1-2.738-2.738V87.91a2.741 2.741 0 0 1 2.738-2.738h60.984a2.741 2.741 0 0 1 2.738 2.738v77.339a2.741 2.741 0 0 1-2.738 2.738zm-60.984-81.843a1.767 1.767 0 0 0-1.765 1.765v77.339a1.767 1.767 0 0 0 1.765 1.765h60.984a1.767 1.767 0 0 0 1.765-1.765V87.91a1.767 1.767 0 0 0-1.765-1.765zm59.218 77.337h-57.451v-73.8h57.451zm-56.478-.972H170.2V90.65h-55.509z" transform="translate(146.239 102.851)" style="fill:#fff"/>
    <path data-name="Rectangle 12556" transform="translate(317.632 190.763)" style="fill:#f5d006" d="M0 0h22.529v77.337H0z"/>
    <path data-name="Path 16127" d="M162.61 167.514h-22.528a2.253 2.253 0 0 1-2.254-2.252V87.924a2.253 2.253 0 0 1 2.254-2.252h22.528a2.251 2.251 0 0 1 2.252 2.252v77.339a2.251 2.251 0 0 1-2.252 2.252m-20.277-4.505h18.023V90.177h-18.023z" transform="translate(177.55 102.837)" style="fill:#fff"/>
    <path data-name="Path 16127 - Outline" d="M162.583 168.459h-22.529a3.229 3.229 0 0 1-3.226-3.224V87.9a3.229 3.229 0 0 1 3.226-3.224h22.529a3.228 3.228 0 0 1 3.224 3.224v77.339a3.228 3.228 0 0 1-3.224 3.22zm-22.529-81.842a1.282 1.282 0 0 0-1.281 1.279v77.339a1.282 1.282 0 0 0 1.281 1.279h22.529a1.281 1.281 0 0 0 1.279-1.279V87.9a1.281 1.281 0 0 0-1.279-1.279zm21.246 77.337h-19.967V89.177H161.3zm-18.023-1.945h16.078V91.122h-16.077z" transform="translate(177.578 102.865)" style="fill:#fff"/>
    <path data-name="Path 16127 - Outline" d="M162.6 167.987h-22.532a2.742 2.742 0 0 1-2.74-2.738V87.91a2.742 2.742 0 0 1 2.74-2.738H162.6a2.741 2.741 0 0 1 2.738 2.738v77.339a2.741 2.741 0 0 1-2.738 2.738zm-22.532-81.843a1.768 1.768 0 0 0-1.768 1.766v77.339a1.768 1.768 0 0 0 1.767 1.765H162.6a1.767 1.767 0 0 0 1.765-1.765V87.91a1.767 1.767 0 0 0-1.765-1.765zm20.761 77.337h-19v-73.8h19zm-18.023-.972h17.051V90.65h-17.051z" transform="translate(177.564 102.851)" style="fill:#fff"/>
    <path data-name="Rectangle 12557" transform="translate(183.472 162.625)" style="fill:#333" d="M0 0h74.117v105.475H0z"/>
    <path data-name="Path 16128" d="M150.742 182.343H76.625a2.253 2.253 0 0 1-2.254-2.252V74.617a2.253 2.253 0 0 1 2.254-2.254h74.117A2.253 2.253 0 0 1 153 74.617v105.474a2.253 2.253 0 0 1-2.254 2.252m-71.865-4.505h69.609V76.868H78.876z" transform="translate(106.847 88.008)" style="fill:#fff"/>
    <path data-name="Path 16128 - Outline" d="M150.714 183.288H76.6a3.229 3.229 0 0 1-3.226-3.224V74.589a3.23 3.23 0 0 1 3.226-3.226h74.117a3.23 3.23 0 0 1 3.226 3.226v105.475a3.229 3.229 0 0 1-3.229 3.224zM76.6 73.308a1.283 1.283 0 0 0-1.281 1.281v105.475a1.282 1.282 0 0 0 1.281 1.279h74.117a1.282 1.282 0 0 0 1.283-1.279V74.589a1.283 1.283 0 0 0-1.281-1.281zm72.838 105.475H77.876V75.868h71.559zm-69.614-1.945h67.666V77.813H79.821z" transform="translate(106.875 88.036)" style="fill:#fff"/>
    <path data-name="Path 16128 - Outline" d="M150.728 182.815H76.611a2.742 2.742 0 0 1-2.74-2.738V74.6a2.743 2.743 0 0 1 2.74-2.74h74.117a2.743 2.743 0 0 1 2.74 2.74v105.478a2.742 2.742 0 0 1-2.74 2.737zM76.611 72.835a1.769 1.769 0 0 0-1.768 1.765v105.478a1.768 1.768 0 0 0 1.767 1.765h74.117a1.768 1.768 0 0 0 1.767-1.765V74.6a1.769 1.769 0 0 0-1.767-1.767zm72.352 105.475H78.376V76.368h70.586zm-69.614-.972h68.641v-100H79.349z" transform="translate(106.861 88.022)" style="fill:#fff"/>
    <path data-name="Rectangle 12558" transform="translate(255.716 162.625)" style="fill:#333" d="M0 0h27.381v105.475H0z"/>
    <path data-name="Path 16129" d="M138.177 182.343h-27.383a2.252 2.252 0 0 1-2.252-2.252V74.617a2.253 2.253 0 0 1 2.252-2.254h27.383a2.253 2.253 0 0 1 2.252 2.254v105.474a2.252 2.252 0 0 1-2.252 2.252m-25.129-4.505h22.875V76.868h-22.876z" transform="translate(144.92 88.008)" style="fill:#fff"/>
    <path data-name="Path 16129 - Outline" d="M138.149 183.288h-27.383a3.228 3.228 0 0 1-3.224-3.224V74.589a3.229 3.229 0 0 1 3.224-3.226h27.383a3.229 3.229 0 0 1 3.224 3.226v105.475a3.228 3.228 0 0 1-3.224 3.224zm-27.383-109.98a1.282 1.282 0 0 0-1.279 1.281v105.475a1.281 1.281 0 0 0 1.279 1.279h27.383a1.281 1.281 0 0 0 1.279-1.279V74.589a1.282 1.282 0 0 0-1.279-1.281zm26.1 105.475h-24.82V75.868h24.82zm-22.875-1.945h20.931V77.813h-20.93z" transform="translate(144.948 88.036)" style="fill:#fff"/>
    <path data-name="Path 16129 - Outline" d="M138.163 182.815H110.78a2.741 2.741 0 0 1-2.738-2.738V74.6a2.742 2.742 0 0 1 2.738-2.74h27.383a2.742 2.742 0 0 1 2.737 2.74v105.478a2.741 2.741 0 0 1-2.737 2.737zM110.78 72.835a1.768 1.768 0 0 0-1.765 1.767v105.476a1.767 1.767 0 0 0 1.765 1.765h27.383a1.767 1.767 0 0 0 1.765-1.765V74.6a1.768 1.768 0 0 0-1.765-1.767zM136.4 178.31h-23.853V76.368H136.4zm-22.875-.972h21.9v-100h-21.9z" transform="translate(144.934 88.022)" style="fill:#fff"/>
    <g data-name="Group 18485" style="opacity:.28">
        <g data-name="Group 18484">
            <g data-name="Group 18483" style="clip-path:url(#m4o52peqib)" transform="translate(193.634 200.735)">
                <path data-name="Path 16130" d="m117.794 119.612-28.144 7.264a2.892 2.892 0 0 1-3.512-2.07l-5.8-22.486a2.889 2.889 0 0 1 2.07-3.51l28.146-7.264a2.887 2.887 0 0 1 3.51 2.07l5.8 22.486a2.888 2.888 0 0 1-2.07 3.51" transform="translate(-80.243 -91.455)" style="fill:#f5d006"/>
            </g>
        </g>
    </g>
    <path data-name="Path 16131" d="M122.467 124.3 89.8 127.284a3.264 3.264 0 0 1-3.535-2.943l-2.378-26.1a3.262 3.262 0 0 1 2.943-3.535l32.67-2.979a3.263 3.263 0 0 1 3.535 2.945l2.378 26.1a3.261 3.261 0 0 1-2.943 3.535" transform="translate(117.433 109.568)" style="fill:#f5d006"/>
    <g data-name="Group 18488" style="opacity:.11">
        <g data-name="Group 18487">
            <g data-name="Group 18486" style="clip-path:url(#g6ghoxpwmc)" transform="translate(208.88 203.522)">
                <path data-name="Path 16132" d="M123.51 125.486h-32.8a3.261 3.261 0 0 1-3.252-3.252V96.027a3.263 3.263 0 0 1 3.252-3.254h32.8a3.263 3.263 0 0 1 3.252 3.254v26.207a3.261 3.261 0 0 1-3.252 3.252" transform="translate(-87.454 -92.773)" style="fill:#f5d006"/>
            </g>
        </g>
    </g>
    <path data-name="Path 16133" d="M98.854 108.869a10.022 10.022 0 0 1-9.4-6.205 1.479 1.479 0 1 1 2.706-1.2 6.765 6.765 0 0 0 12.856-.444 1.48 1.48 0 0 1 2.782 1.008 10.022 10.022 0 0 1-8.947 6.837" transform="translate(123.515 118.854)" style="fill:#fff"/>
    <path data-name="Path 16134" d="M93.256 99.09a2.205 2.205 0 1 1-2.279-2.129 2.2 2.2 0 0 1 2.279 2.129" transform="translate(122.975 115.413)" style="fill:#fff"/>
    <path data-name="Path 16135" d="M100.872 98.827a2.2 2.2 0 1 1-2.279-2.127 2.2 2.2 0 0 1 2.279 2.129" transform="translate(131.463 115.12)" style="fill:#fff"/>
    <g data-name="Group 18491" style="opacity:.28">
        <g data-name="Group 18490">
            <g data-name="Group 18489" style="clip-path:url(#b6q5lpusld)" transform="translate(90.343 45.064)">
                <path data-name="Path 16136" d="m79.868 53.468-37.142 9.586a2.89 2.89 0 0 1-3.512-2.07l-7.735-29.973a2.889 2.889 0 0 1 2.07-3.51l37.144-9.588a2.89 2.89 0 0 1 3.51 2.07l7.736 29.975a2.888 2.888 0 0 1-2.07 3.51" transform="translate(-31.387 -17.823)" style="fill:#f5d006"/>
            </g>
        </g>
    </g>
    <path data-name="Path 16137" d="M35.162 73.327a6.1 6.1 0 0 1 1.9-1.77 12.684 12.684 0 0 1 2.146-.966c.734-.249 1.465-.49 2.2-.725a7.365 7.365 0 0 0 2.171-1.152q.59-.323 1.664-.966a25.233 25.233 0 0 0 2.118-1.423 18.414 18.414 0 0 0 1.831-1.525 2.041 2.041 0 0 0 .778-1.288.047.047 0 0 0-.053-.053c-.072 0-.108-.019-.108-.055L49.7 63.3a8.3 8.3 0 0 0-.858-.269 6.015 6.015 0 0 1-.7-.216q-6.92-.806-11.131-1.421a46.625 46.625 0 0 1-6.493-1.315 6.418 6.418 0 0 1-3.032-1.609 3.512 3.512 0 0 1-.751-2.309 3.735 3.735 0 0 1 .214-1.18 13.013 13.013 0 0 1 .51-1.288 12.226 12.226 0 0 1 .617-1.18 7.384 7.384 0 0 1 .59-.86 8.679 8.679 0 0 1 2.254-1.93 20.021 20.021 0 0 1 3-1.5q1.611-.644 3.247-1.125t2.977-.86a9.892 9.892 0 0 0 3.032-.723 12.985 12.985 0 0 1 3.032-.831 1.521 1.521 0 0 1 1.233.59 1.915 1.915 0 0 1 .484 1.233 1.949 1.949 0 0 1-1.26 2.066 6.144 6.144 0 0 1-1.262.376q-.7.133-1.4.3l-1.18.294q-.752.19-1.5.4t-1.34.376a6.015 6.015 0 0 0-.7.216l-3.137 1.315a21.451 21.451 0 0 0-2.577 1.26 6.693 6.693 0 0 0-1.717 1.368 2.171 2.171 0 0 0-.562 1.584v.053a3.867 3.867 0 0 0 2.414 1.127q1.877.374 4.427.643t5.364.537a41.153 41.153 0 0 1 5.178.806 13.865 13.865 0 0 1 3.927 1.437 2.9 2.9 0 0 1 1.609 2.467 4.954 4.954 0 0 1-.241 1.4 2.889 2.889 0 0 1-.672 1.235 35.267 35.267 0 0 1-3.196 3.108 33.642 33.642 0 0 1-4 2.977 28.2 28.2 0 0 1-4.425 2.309 14.633 14.633 0 0 1-4.48 1.1 2.082 2.082 0 0 1-1.4-.564 1.756 1.756 0 0 1-.643-1.368" transform="translate(53.776 57.162)" style="fill:#333"/>
    <path data-name="Path 16138" d="M51.726 67.391c-.249.537-.5 1.118-.751 1.744a10.1 10.1 0 0 1-.858 1.689 4.674 4.674 0 0 1-1.182 1.26 2.918 2.918 0 0 1-1.77.51 4.981 4.981 0 0 1-3.112-.939 7.343 7.343 0 0 1-2.012-2.355 10.615 10.615 0 0 1-1.1-3.085 16.538 16.538 0 0 1-.321-3.115l.429-12.985a1.175 1.175 0 0 1 .188-.778 3.149 3.149 0 0 1 .643-.751 3.353 3.353 0 0 1 .913-.562 2.416 2.416 0 0 1 .939-.216 3.01 3.01 0 0 1 2.093.778 2.6 2.6 0 0 1 .856 2.013v.537a10 10 0 0 0-1.019 2.52 25.417 25.417 0 0 0-.67 3.353 35.293 35.293 0 0 0-.3 3.677 23.277 23.277 0 0 0 .135 3.433 10.878 10.878 0 0 0 .617 2.655 1.983 1.983 0 0 0 1.127 1.315 2.222 2.222 0 0 0 .831-.268 3.921 3.921 0 0 0 1.212-1.021 10.944 10.944 0 0 0 1.343-2.121 16.669 16.669 0 0 0 1.233-3.619 37.683 37.683 0 0 0 .806-5.474 74 74 0 0 0 .161-7.725c.142-.393.349-.609.617-.645a6.261 6.261 0 0 1 .831-.053q.482 0 .806.025a1.213 1.213 0 0 1 .7.4 4.394 4.394 0 0 1 .59.8 3.856 3.856 0 0 1 .321.59l.913 23.768A2.085 2.085 0 0 1 56.5 74.1a1.492 1.492 0 0 1-1.235.537 4.67 4.67 0 0 1-.645-.055 2.947 2.947 0 0 1-.751-.214 2.757 2.757 0 0 1-.67-.4.912.912 0 0 1-.349-.562l-.913-5.366z" transform="translate(69.242 59.933)" style="fill:#333"/>
    <path data-name="Path 16139" d="M50.218 80.845c0-.18-.019-.482-.053-.911s-.063-.886-.08-1.37-.038-.928-.055-1.34-.03-.707-.03-.886q-.054-1.5-.027-4.56t.053-6.734q.025-3.672.08-7.537t.055-7.055q0-3.193-.027-5.285A8.918 8.918 0 0 0 50 43.02a1.984 1.984 0 0 1 .374-1.1.9.9 0 0 1 .966-.457 4.369 4.369 0 0 1 .992.133 4.105 4.105 0 0 1 1.047.4 3.075 3.075 0 0 1 .833.67 1.459 1.459 0 0 1 .347.992v15.673h.216L60.95 52.3a8.242 8.242 0 0 0 .723-1.127q.349-.644.725-1.233a6.155 6.155 0 0 1 .858-1.074 2.4 2.4 0 0 1 1.233-.643 6.8 6.8 0 0 1 1.932.751 1.833 1.833 0 0 1 .8 1.717 1.276 1.276 0 0 1-.078.349 3.144 3.144 0 0 1-.135.349q-.162.216-.67.831t-1.664 2.038q-1.154 1.424-3.112 3.757t-5.017 6.036l.484.269 10.411 1.072a2.058 2.058 0 0 1 1.26.778 2.022 2.022 0 0 1 .564 1.262 1.631 1.631 0 0 1-.778 1.529 4.306 4.306 0 0 1-1.689.562c-.036-.142-.154-.222-.351-.241l-1.474-.133q-1.182-.107-3.572-.349t-6.626-.886l.216 12.77a2.964 2.964 0 0 1-.376 1.636c-.252.376-.806.562-1.664.562a2.52 2.52 0 0 1-1.689-.617 3.614 3.614 0 0 1-1.047-1.421" transform="translate(79.657 53.562)" style="fill:#333"/>
    <path data-name="Path 16140" d="M59.628 43.752c0-.252.205-.474.617-.67a2.452 2.452 0 0 1 .939-.3 4.358 4.358 0 0 1 1.8.457 1.463 1.463 0 0 1 .994 1.368 2.2 2.2 0 0 1-.241 1.233q-.244.323-1.154.323a3.592 3.592 0 0 1-1.96-.645 2 2 0 0 1-.992-1.77m3 31.577q-.536-5.366-.911-9.176t-.645-6.385q-.27-2.575-.457-4.1t-.294-2.307a25.515 25.515 0 0 0-.161-1.047 2.729 2.729 0 0 1-.055-.321v-.216a1.224 1.224 0 0 1 .51-.992 1.678 1.678 0 0 1 1.047-.4 6.423 6.423 0 0 1 1.744.269 1.8 1.8 0 0 1 1.262 1.127 48.441 48.441 0 0 1 .67 5.313q.187 2.683.321 5.338t.376 5.338a35.737 35.737 0 0 0 .884 5.311 2.33 2.33 0 0 0 .08.429c.055.214.108.448.163.7s.1.482.133.7a3.185 3.185 0 0 1 .053.429v.108a.149.149 0 0 0 .055.106 1.934 1.934 0 0 1-.59 1.288 1.357 1.357 0 0 1-1.235.537 9.968 9.968 0 0 0-.778-.186 4.108 4.108 0 0 1-.831-.243 1.8 1.8 0 0 1-.431-.241 6.26 6.26 0 0 1-.51-.4 2.086 2.086 0 0 1-.4-.484.4.4 0 0 1 0-.482" transform="translate(90.421 55.054)" style="fill:#333"/>
    <path data-name="Path 16141" d="M64.018 43.752c0-.252.205-.474.617-.67a2.452 2.452 0 0 1 .939-.3 4.358 4.358 0 0 1 1.8.457 1.463 1.463 0 0 1 .994 1.368 2.2 2.2 0 0 1-.241 1.233q-.244.323-1.154.323a3.592 3.592 0 0 1-1.96-.645 2 2 0 0 1-.992-1.77m3 31.577q-.536-5.366-.911-9.176t-.645-6.385q-.27-2.575-.457-4.1t-.294-2.307a25.515 25.515 0 0 0-.161-1.047 2.724 2.724 0 0 1-.055-.321v-.216a1.224 1.224 0 0 1 .51-.992 1.678 1.678 0 0 1 1.047-.4 6.423 6.423 0 0 1 1.744.269 1.8 1.8 0 0 1 1.262 1.127 48.442 48.442 0 0 1 .67 5.313q.187 2.683.321 5.338t.376 5.338a35.733 35.733 0 0 0 .884 5.311 2.33 2.33 0 0 0 .08.429c.055.214.108.448.163.7s.1.482.133.7a3.184 3.184 0 0 1 .053.429v.108a.149.149 0 0 0 .055.106 1.934 1.934 0 0 1-.59 1.288 1.356 1.356 0 0 1-1.235.537 9.968 9.968 0 0 0-.778-.186 4.109 4.109 0 0 1-.831-.243 1.8 1.8 0 0 1-.431-.241 6.26 6.26 0 0 1-.51-.4 2.086 2.086 0 0 1-.4-.484.4.4 0 0 1 0-.482" transform="translate(95.312 55.054)" style="fill:#333"/>
    <path data-name="Path 16142" d="m85.86 59.478-43.112 3.93a3.259 3.259 0 0 1-3.533-2.943l-3.174-34.791a3.262 3.262 0 0 1 2.943-3.533L82.1 18.209a3.264 3.264 0 0 1 3.535 2.945L88.8 55.943a3.261 3.261 0 0 1-2.943 3.535" transform="translate(64.125 27.656)" style="fill:#f5d006"/>
    <g data-name="Group 18494" style="opacity:.11">
        <g data-name="Group 18493">
            <g data-name="Group 18492" style="clip-path:url(#wipcmfpg7e)" transform="translate(108.083 50.099)">
                <path data-name="Path 16143" d="M87.146 61.012h-43.29a3.263 3.263 0 0 1-3.256-3.251V22.826a3.265 3.265 0 0 1 3.254-3.254h43.29a3.263 3.263 0 0 1 3.256 3.254v34.935a3.261 3.261 0 0 1-3.252 3.252" transform="translate(-40.602 -19.574)" style="fill:#f5d006"/>
            </g>
        </g>
    </g>
    <path data-name="Path 16144" d="M55.042 39.963a12.69 12.69 0 0 1-11.9-7.861 1.873 1.873 0 1 1 3.425-1.516 8.968 8.968 0 0 0 8.349 5.63 8.966 8.966 0 0 0 7.939-6.192 1.874 1.874 0 0 1 3.521 1.276 12.693 12.693 0 0 1-11.334 8.662" transform="translate(71.869 39.458)" style="fill:#fff"/>
    <path data-name="Path 16145" d="M47.95 27.573a2.793 2.793 0 1 1-2.888-2.7 2.794 2.794 0 0 1 2.888 2.7" transform="translate(71.186 35.099)" style="fill:#fff"/>
    <path data-name="Path 16146" d="M57.6 27.24a2.793 2.793 0 1 1-2.888-2.7 2.794 2.794 0 0 1 2.888 2.7" transform="translate(81.939 34.728)" style="fill:#fff"/>
    <path data-name="Path 16147" d="M-.679 0h332.316v262.969H-.679z" transform="translate(24.663 7.383)" style="fill:none"/>
    <path data-name="Path 16148" d="M330.2 126.406H2.114a2.114 2.114 0 1 1 0-4.228H330.2a2.114 2.114 0 1 1 0 4.228" transform="translate(23.984 143.512)" style="fill:#fff"/>
    <path data-name="Path 16148 - Outline" d="M330.161 127.824H2.073a3.573 3.573 0 0 1 0-7.146h328.088a3.573 3.573 0 0 1 0 7.146zM2.073 123.6a.655.655 0 0 0 0 1.311h328.088a.655.655 0 1 0 0-1.311z" transform="translate(24.025 143.553)" style="fill:#fff"/>
</svg>
